SplineFontDB: 3.0
FontName: Untitled3
FullName: Untitled3
FamilyName: Untitled3
Weight: Regular
Copyright: Copyright (c) 2015, Alejandro
UComments: "2015-7-28: Created with FontForge (http://fontforge.org)"
Version: 001.000
ItalicAngle: 0
UnderlinePosition: -102.4
UnderlineWidth: 51.2
Ascent: 819
Descent: 205
InvalidEm: 0
LayerCount: 2
Layer: 0 0 "Back" 1
Layer: 1 0 "Fore" 0
XUID: [1021 46 -1548874751 1957]
StyleMap: 0x0000
FSType: 0
OS2Version: 0
OS2_WeightWidthSlopeOnly: 0
OS2_UseTypoMetrics: 1
CreationTime: 1438130052
ModificationTime: 1438366883
OS2TypoAscent: 0
OS2TypoAOffset: 1
OS2TypoDescent: 0
OS2TypoDOffset: 1
OS2TypoLinegap: 92
OS2WinAscent: 0
OS2WinAOffset: 1
OS2WinDescent: 0
OS2WinDOffset: 1
HheadAscent: 0
HheadAOffset: 1
HheadDescent: 0
HheadDOffset: 1
OS2Vendor: 'PfEd'
MarkAttachClasses: 1
DEI: 91125
Encoding: ISO8859-1
UnicodeInterp: none
NameList: AGL For New Fonts
DisplaySize: -48
AntiAlias: 1
FitToEm: 0
WinInfo: 0 29 11
BeginPrivate: 0
EndPrivate
BeginChars: 256 46

StartChar: a
Encoding: 97 97 0
Width: 643
Flags: HW
LayerCount: 2
Fore
SplineSet
61 393 m 1
 97 393 l 1
 97 265 l 1
 545 265 l 1
 545 393 l 1
 581 393 l 1
 581 -127 l 1
 545 -127 l 1
 545 1 l 1
 97 1 l 1
 97 -127 l 1
 61 -127 l 1
 61 393 l 1
97 73 m 1
 545 73 l 1
 545 194 l 1
 97 194 l 1
 97 73 l 1
EndSplineSet
Validated: 1
EndChar

StartChar: d
Encoding: 100 100 1
Width: 431
Flags: HW
LayerCount: 2
Fore
SplineSet
0 3 m 0
 -1 21 3 38 13 54 c 128
 23 70 37 84 55 96 c 128
 73 108 95 118 120 126 c 128
 145 134 172 137 201 137 c 256
 230 137 257 134 284 129 c 128
 311 124 334 115 355 103 c 128
 376 91 393 77 407 60 c 128
 421 43 428 22 430 -2 c 0
 431 -20 427 -37 417 -53 c 128
 407 -69 393 -83 375 -95 c 128
 357 -107 336 -117 311 -124 c 128
 286 -131 259 -135 230 -135 c 256
 201 -135 174 -132 147 -127 c 128
 120 -122 97 -113 76 -102 c 128
 55 -91 38 -76 24 -59 c 128
 10 -42 2 -21 0 3 c 0
128 23 m 0
 131 5 135 -14 139 -30 c 128
 143 -46 149 -61 157 -73 c 128
 165 -85 175 -94 186 -101 c 128
 197 -108 211 -112 228 -112 c 0
 240 -112 252 -108 262 -103 c 128
 272 -98 280 -91 287 -83 c 128
 294 -75 299 -66 302 -56 c 128
 305 -46 305 -37 304 -27 c 0
 301 -9 298 10 293 26 c 128
 288 42 281 57 273 69 c 128
 265 81 255 91 243 98 c 128
 231 105 217 109 200 109 c 0
 188 109 177 105 167 100 c 128
 157 95 149 88 143 80 c 128
 137 72 133 62 130 52 c 128
 127 42 127 33 128 23 c 0
EndSplineSet
Validated: 33
EndChar

StartChar: G
Encoding: 71 71 2
Width: 350
Flags: HW
LayerCount: 2
Fore
SplineSet
241 33 m 1
 205 10 166 -1 126 0 c 0
 105 0 86 4 70 11 c 128
 54 18 41 27 31 39 c 1
 31 -506 l 1
 33 -506 l 2
 43 -505 54 -502 66 -499 c 0
 76 -496 86 -492 99 -487 c 128
 112 -482 125 -475 138 -466 c 0
 147 -460 156 -451 167 -440 c 128
 178 -429 189 -416 201 -400 c 128
 213 -384 224 -365 235 -344 c 128
 246 -323 257 -299 266 -273 c 0
 276 -244 282 -217 285 -190 c 128
 288 -163 289 -141 286 -123 c 0
 284 -107 281 -91 279 -78 c 128
 277 -65 274 -52 271 -40 c 128
 268 -28 263 -17 258 -5 c 128
 253 7 248 19 241 33 c 1
20 134 m 0
 27 152 37 169 51 185 c 128
 65 201 82 215 100 227 c 128
 118 239 138 248 159 254 c 128
 180 260 202 264 224 264 c 256
 246 264 265 260 281 253 c 128
 297 246 310 236 320 224 c 128
 330 212 336 198 338 182 c 128
 340 166 338 148 331 130 c 0
 324 112 315 96 302 81 c 128
 289 66 274 53 257 41 c 1
 274 2 288 -39 297 -81 c 128
 306 -123 307 -170 300 -222 c 0
 296 -249 289 -279 279 -310 c 128
 269 -341 254 -374 233 -409 c 0
 211 -446 189 -481 166 -515 c 128
 143 -549 123 -579 103 -608 c 0
 85 -632 69 -660 55 -690 c 128
 41 -720 33 -749 33 -778 c 1
 14 -778 l 1
 14 -774 l 1
 12 -774 l 1
 12 96 l 2
 12 107 15 120 20 134 c 0
EndSplineSet
Validated: 33
EndChar

StartChar: h
Encoding: 104 104 3
Width: 617
Flags: HW
LayerCount: 2
Fore
SplineSet
611 262 m 0
 612 245 611 228 609 212 c 128
 607 196 605 182 601 168 c 128
 597 154 593 142 589 132 c 128
 585 122 582 114 579 109 c 1
 567 114 l 1
 576 137 583 159 589 183 c 128
 595 207 597 229 596 249 c 0
 595 273 591 295 585 318 c 128
 579 341 573 363 565 385 c 0
 554 417 539 446 520 471 c 128
 501 496 480 516 456 532 c 0
 443 541 429 549 414 557 c 128
 399 565 386 572 373 577 c 0
 358 584 343 590 327 595 c 1
 327 171 l 2
 327 157 324 144 319 130 c 0
 312 112 302 95 288 79 c 128
 274 63 257 49 239 37 c 128
 221 25 201 16 179 10 c 128
 157 4 136 0 115 0 c 0
 93 0 73 4 57 11 c 128
 41 18 28 28 18 40 c 128
 8 52 3 66 1 82 c 128
 -1 98 0 116 7 134 c 256
 14 152 24 169 38 185 c 128
 52 201 69 215 87 227 c 128
 105 239 125 248 147 254 c 128
 169 260 190 264 212 264 c 256
 234 264 253 260 269 253 c 128
 285 246 297 237 307 225 c 1
 307 726 l 1
 307 1002 l 1
 327 1002 l 1
 327 984 328 969 332 958 c 128
 336 947 341 937 347 929 c 128
 353 921 361 915 369 909 c 128
 377 903 385 897 394 890 c 0
 401 885 410 877 421 868 c 128
 432 859 443 848 456 836 c 128
 469 824 482 810 496 795 c 128
 510 780 523 763 536 746 c 0
 545 734 552 724 559 715 c 128
 566 706 573 697 578 688 c 128
 583 679 588 668 592 658 c 128
 596 648 600 637 603 624 c 0
 607 606 609 588 609 569 c 128
 609 550 607 533 603 517 c 0
 600 503 597 493 594 485 c 128
 591 477 588 470 586 465 c 128
 584 460 581 455 579 451 c 128
 577 447 574 443 571 438 c 1
 576 426 580 416 584 406 c 128
 588 396 591 386 594 374 c 0
 596 364 598 356 600 348 c 128
 602 340 603 333 605 324 c 128
 607 315 608 306 609 296 c 128
 610 286 610 275 611 262 c 0
588 531 m 0
 589 539 589 546 590 550 c 128
 591 554 591 558 591 562 c 128
 591 566 590 570 589 575 c 128
 588 580 586 589 583 600 c 0
 575 626 565 648 552 667 c 128
 539 686 527 702 513 715 c 128
 499 728 486 738 472 747 c 128
 458 756 446 763 436 768 c 0
 418 778 399 786 379 790 c 128
 359 794 343 796 331 797 c 1
 331 790 331 785 332 782 c 0
 333 770 334 760 337 752 c 128
 340 744 344 737 349 730 c 128
 354 723 360 716 367 709 c 128
 374 702 381 694 390 684 c 0
 412 660 434 635 457 610 c 128
 480 585 504 555 530 520 c 0
 535 512 542 501 549 488 c 128
 556 475 562 465 565 457 c 1
 572 469 578 482 581 496 c 128
 584 510 587 521 588 531 c 0
EndSplineSet
Validated: 33
EndChar

StartChar: H
Encoding: 72 72 4
Width: 372
Flags: HW
LayerCount: 2
Fore
SplineSet
305 -334 m 0
 303 -322 300 -312 296 -302 c 128
 292 -292 287 -280 282 -266 c 1
 277 -276 272 -286 266 -297 c 128
 260 -308 253 -320 245 -332 c 0
 233 -350 219 -365 205 -378 c 128
 191 -391 178 -402 164 -413 c 128
 150 -424 137 -434 124 -444 c 128
 111 -454 100 -465 89 -477 c 0
 79 -488 71 -498 62 -507 c 128
 53 -516 45 -526 39 -536 c 128
 33 -546 28 -556 24 -567 c 128
 20 -578 18 -591 18 -605 c 1
 34 -606 50 -606 66 -605 c 0
 80 -604 94 -602 110 -599 c 128
 126 -596 140 -591 154 -583 c 0
 156 -582 163 -577 174 -568 c 128
 185 -559 197 -548 211 -534 c 128
 225 -520 239 -503 254 -485 c 128
 269 -467 281 -447 291 -427 c 0
 293 -422 295 -416 297 -408 c 128
 299 -400 302 -392 303 -383 c 128
 304 -374 305 -366 306 -357 c 128
 307 -348 306 -341 305 -334 c 0
281 70 m 1
 261 47 235 29 206 17 c 128
 177 5 146 -1 114 0 c 0
 93 0 74 4 58 11 c 128
 42 18 29 27 19 39 c 1
 19 -407 l 1
 39 -402 60 -396 78 -389 c 0
 94 -384 110 -378 127 -370 c 128
 144 -362 160 -354 173 -345 c 0
 198 -328 220 -307 238 -281 c 128
 256 -255 271 -227 283 -195 c 0
 291 -173 297 -150 303 -127 c 128
 309 -104 312 -81 313 -58 c 0
 314 -32 311 -9 303 11 c 128
 295 31 289 52 281 70 c 1
7 134 m 0
 14 152 24 169 38 185 c 128
 52 201 69 215 87 227 c 128
 105 239 125 248 146 254 c 128
 167 260 189 264 211 264 c 256
 233 264 252 260 268 253 c 128
 284 246 297 236 307 224 c 128
 317 212 323 198 325 182 c 128
 327 166 325 148 318 130 c 0
 315 122 311 116 307 108 c 128
 303 100 298 93 293 86 c 1
 301 64 309 39 318 12 c 128
 327 -15 331 -43 329 -72 c 0
 328 -85 327 -96 326 -106 c 128
 325 -116 324 -125 322 -133 c 128
 320 -141 319 -149 317 -157 c 128
 315 -165 313 -173 311 -182 c 0
 308 -194 306 -205 302 -215 c 128
 298 -225 294 -235 290 -247 c 1
 295 -257 300 -266 305 -276 c 128
 310 -286 316 -304 321 -327 c 0
 323 -339 325 -349 326 -358 c 128
 327 -367 328 -375 328 -383 c 128
 328 -391 327 -399 326 -407 c 128
 325 -415 323 -422 321 -431 c 0
 318 -445 314 -456 311 -465 c 128
 308 -474 303 -482 298 -491 c 128
 293 -500 287 -509 280 -519 c 128
 273 -529 264 -541 252 -555 c 0
 238 -572 223 -588 207 -601 c 128
 191 -614 176 -626 160 -637 c 128
 144 -648 129 -660 115 -670 c 128
 101 -680 89 -690 79 -700 c 0
 71 -708 64 -716 57 -721 c 128
 50 -726 43 -732 38 -740 c 128
 33 -748 28 -756 25 -767 c 128
 22 -778 19 -793 19 -811 c 1
 0 -811 l 1
 0 -811 0 -811 0 -794 c 128
 0 -777 0 -776 0 -748 c 128
 0 -720 0 -720 0 -684 c 128
 0 -648 0 -647 0 -609 c 2
 0 -407 l 1
 0 86 l 2
 0 94 0 101 1 109 c 128
 2 117 4 125 7 134 c 0
EndSplineSet
Validated: 33
EndChar

StartChar: g
Encoding: 103 103 5
Width: 568
Flags: HW
LayerCount: 2
Fore
SplineSet
7 134 m 256
 14 152 24 169 38 185 c 128
 52 201 69 215 87 227 c 128
 105 239 125 248 146 254 c 128
 167 260 189 264 211 264 c 0
 233 263 252 260 268 253 c 128
 284 246 296 237 306 225 c 1
 306 1051 l 1
 326 1051 l 1
 326 1026 331 999 341 972 c 128
 351 945 364 920 379 899 c 0
 396 876 414 850 434 823 c 128
 454 796 474 766 494 733 c 0
 502 719 509 703 517 685 c 128
 525 667 532 649 538 632 c 128
 544 615 548 598 552 583 c 128
 556 568 559 555 560 545 c 0
 566 501 569 460 568 420 c 0
 567 389 565 359 560 330 c 128
 555 301 548 273 538 246 c 1
 525 252 l 1
 535 275 542 302 546 333 c 128
 550 364 553 395 553 424 c 0
 553 448 551 474 547 504 c 128
 543 534 536 561 527 586 c 0
 511 632 493 668 471 695 c 128
 449 722 431 741 416 751 c 0
 404 759 393 765 382 769 c 128
 371 773 361 776 353 778 c 0
 343 781 335 782 326 782 c 1
 326 178 l 2
 326 170 326 163 325 155 c 128
 324 147 321 138 318 130 c 0
 311 112 301 95 287 79 c 128
 273 63 257 49 239 37 c 128
 221 25 200 16 178 10 c 128
 156 4 135 0 114 0 c 0
 92 0 73 4 57 11 c 128
 41 18 28 28 18 40 c 128
 8 52 2 66 0 82 c 128
 -2 98 0 116 7 134 c 256
EndSplineSet
Validated: 33
EndChar

StartChar: E
Encoding: 69 69 6
Width: 364
Flags: HW
LayerCount: 2
Fore
SplineSet
333 236 m 0
 337 228 339 219 340 210 c 128
 341 201 340 192 339 182 c 128
 338 172 336 164 334 155 c 128
 332 146 330 140 328 135 c 0
 318 108 303 85 284 65 c 128
 265 45 248 31 232 23 c 0
 216 15 198 9 177 5 c 128
 156 1 134 0 110 3 c 0
 97 4 80 8 62 12 c 128
 44 16 29 25 17 37 c 1
 17 -783 l 1
 -2 -783 l 1
 -2 91 l 1
 -2 102 l 2
 -1 111 2 119 4 127 c 128
 6 135 8 141 10 146 c 0
 20 172 34 194 52 212 c 128
 70 230 86 244 102 253 c 0
 118 263 138 270 162 275 c 128
 186 280 213 282 242 279 c 0
 250 278 250 278 262 276 c 128
 270 275 279 273 288 270 c 128
 297 267 305 262 313 257 c 128
 321 252 328 245 333 236 c 0
308 218 m 0
 303 227 296 233 288 236 c 128
 280 239 271 239 261 238 c 128
 251 237 242 234 232 231 c 128
 222 228 214 224 206 220 c 0
 194 214 184 208 174 203 c 128
 164 198 153 192 143 186 c 256
 133 180 123 174 113 168 c 128
 103 162 93 156 81 148 c 0
 73 143 66 138 58 132 c 128
 50 126 43 118 37 110 c 128
 31 102 28 94 26 86 c 128
 24 78 27 69 32 60 c 0
 37 51 43 46 52 43 c 128
 61 40 69 39 78 40 c 128
 87 41 97 44 107 48 c 128
 117 52 126 55 134 59 c 0
 157 70 179 81 198 93 c 0
 209 99 219 105 228 110 c 128
 237 115 247 121 259 129 c 0
 267 134 274 139 282 146 c 128
 290 153 297 160 303 168 c 128
 309 176 312 183 313 192 c 128
 314 201 313 209 308 218 c 0
EndSplineSet
Validated: 33
EndChar

StartChar: e
Encoding: 101 101 7
Width: 340
Flags: HW
LayerCount: 2
Fore
SplineSet
5 44 m 0
 1 51 -1 59 -2 69 c 128
 -3 79 -2 87 -1 97 c 128
 0 107 2 116 4 124 c 128
 6 132 8 139 10 144 c 0
 20 171 34 195 53 215 c 128
 72 235 90 249 106 257 c 0
 122 265 141 270 162 274 c 128
 183 278 205 278 229 276 c 0
 241 275 257 272 275 268 c 128
 293 264 310 255 322 242 c 1
 322 1062 l 1
 341 1062 l 1
 341 187 l 2
 341 185 340 184 340 182 c 128
 340 180 340 178 340 177 c 0
 339 167 337 159 335 152 c 128
 333 145 331 138 329 133 c 0
 319 106 305 85 287 67 c 128
 269 49 252 36 236 26 c 256
 220 16 201 8 177 3 c 128
 153 -2 126 -3 97 0 c 0
 92 1 85 2 76 3 c 128
 67 4 59 7 50 10 c 128
 41 13 33 17 25 22 c 128
 17 27 10 34 5 44 c 0
31 60 m 0
 36 51 42 46 51 43 c 128
 60 40 68 39 77 40 c 128
 86 41 96 44 106 47 c 128
 116 50 125 54 133 58 c 0
 145 63 155 70 165 75 c 128
 175 80 185 86 196 92 c 0
 206 97 215 104 225 110 c 128
 235 116 245 122 257 130 c 0
 265 135 273 141 281 147 c 128
 289 153 296 160 301 168 c 128
 306 176 310 185 312 193 c 128
 314 201 312 209 307 218 c 0
 302 227 295 233 287 236 c 128
 279 239 270 239 260 238 c 128
 250 237 241 234 231 231 c 128
 221 228 213 224 205 220 c 0
 193 214 181 208 171 203 c 128
 161 198 150 191 140 185 c 0
 130 180 121 174 111 169 c 128
 101 164 91 158 80 150 c 0
 72 145 64 139 56 132 c 128
 48 125 41 119 36 111 c 128
 31 103 27 96 25 87 c 128
 23 78 26 69 31 60 c 0
EndSplineSet
Validated: 33
EndChar

StartChar: f
Encoding: 102 102 8
Width: 338
Flags: HW
LayerCount: 2
Fore
SplineSet
4 133 m 256
 11 151 21 168 35 184 c 128
 49 200 66 214 84 226 c 128
 102 238 122 247 144 253 c 128
 166 259 187 263 209 263 c 0
 230 263 249 259 265 252 c 128
 281 245 294 236 304 224 c 1
 304 1044 l 1
 324 1044 l 1
 324 174 l 2
 324 166 324 159 323 152 c 128
 322 145 319 137 316 129 c 0
 309 111 299 94 285 78 c 128
 271 62 255 48 237 36 c 128
 219 24 198 15 176 9 c 128
 154 3 133 -1 112 -1 c 0
 90 -1 70 3 54 10 c 128
 38 17 25 27 15 39 c 128
 5 51 -1 65 -3 81 c 128
 -5 97 -3 115 4 133 c 256
EndSplineSet
Validated: 33
EndChar

StartChar: F
Encoding: 70 70 9
Width: 350
Flags: HW
LayerCount: 2
Fore
SplineSet
8 133 m 0
 15 151 25 169 39 185 c 128
 53 201 70 214 88 226 c 128
 106 238 126 247 147 253 c 128
 168 259 190 263 212 263 c 256
 234 263 253 259 269 252 c 128
 285 245 298 236 308 224 c 128
 318 212 324 198 326 182 c 128
 328 166 326 148 319 130 c 256
 312 112 302 94 288 78 c 128
 274 62 258 48 240 36 c 128
 222 24 201 15 179 9 c 128
 157 3 136 -1 115 -1 c 0
 94 0 74 4 58 11 c 128
 42 18 29 27 19 39 c 1
 19 -775 l 1
 0 -775 l 1
 0 95 l 2
 0 106 3 119 8 133 c 0
EndSplineSet
Validated: 33
EndChar

StartChar: one
Encoding: 49 49 10
Width: 726
Flags: HW
LayerCount: 2
Fore
SplineSet
477 -258 m 1
 458 -261 438 -263 416 -264 c 128
 394 -265 373 -265 353 -263 c 128
 333 -261 313 -258 296 -255 c 128
 279 -252 265 -248 254 -243 c 0
 201 -218 158 -190 126 -162 c 128
 94 -134 69 -105 51 -74 c 128
 33 -43 21 -11 14 21 c 128
 7 53 2 86 0 119 c 0
 -3 154 1 190 10 225 c 128
 19 260 32 295 48 327 c 128
 64 359 82 390 103 417 c 128
 124 444 145 468 166 488 c 0
 191 511 216 535 243 558 c 128
 270 581 300 604 332 628 c 1
 331 637 330 644 329 651 c 128
 328 658 327 665 326 672 c 128
 325 679 323 687 321 696 c 128
 319 705 318 716 317 729 c 0
 317 734 316 744 315 759 c 128
 314 774 313 792 313 813 c 128
 313 834 313 857 314 884 c 128
 315 911 320 938 325 967 c 0
 328 984 336 1006 347 1032 c 128
 358 1058 372 1083 387 1108 c 128
 402 1133 418 1153 435 1171 c 128
 452 1189 468 1198 483 1198 c 0
 491 1198 499 1193 508 1184 c 128
 517 1175 525 1162 534 1147 c 128
 543 1132 551 1114 559 1095 c 128
 567 1076 575 1055 581 1035 c 128
 587 1015 591 995 595 975 c 128
 599 955 601 938 602 923 c 0
 603 888 601 856 598 829 c 128
 595 802 590 778 583 756 c 128
 576 734 568 715 559 697 c 128
 550 679 539 660 529 642 c 0
 518 624 507 607 496 593 c 128
 485 579 474 565 462 551 c 0
 450 536 436 524 423 514 c 128
 410 504 397 493 384 481 c 1
 390 446 395 415 400 387 c 0
 402 375 405 363 407 351 c 128
 409 339 411 329 412 319 c 128
 413 309 415 300 416 294 c 128
 417 288 418 284 418 283 c 1
 434 285 451 285 468 283 c 128
 485 281 503 278 519 275 c 128
 535 272 549 267 562 262 c 128
 575 257 584 252 592 247 c 0
 629 220 655 188 670 153 c 128
 685 118 694 82 697 45 c 0
 699 16 697 -12 690 -41 c 128
 683 -70 672 -98 656 -124 c 128
 640 -150 619 -175 593 -197 c 128
 567 -219 538 -237 503 -251 c 1
 507 -279 511 -305 514 -329 c 0
 517 -349 520 -370 523 -389 c 128
 526 -408 528 -421 529 -429 c 0
 535 -470 538 -504 537 -530 c 128
 536 -556 530 -578 521 -594 c 0
 513 -608 505 -621 495 -634 c 128
 485 -647 474 -659 460 -669 c 128
 446 -679 430 -687 412 -694 c 128
 394 -701 373 -706 350 -707 c 0
 332 -708 312 -706 287 -702 c 128
 262 -698 239 -689 216 -678 c 128
 193 -667 174 -652 158 -633 c 128
 142 -614 132 -590 130 -562 c 0
 129 -546 130 -530 133 -513 c 128
 136 -496 142 -480 151 -467 c 128
 160 -454 171 -443 185 -434 c 128
 199 -425 217 -420 237 -419 c 0
 249 -418 261 -420 274 -424 c 128
 287 -428 298 -435 309 -443 c 128
 320 -451 329 -462 336 -474 c 128
 343 -486 347 -500 348 -514 c 0
 350 -539 343 -563 325 -587 c 128
 307 -611 276 -628 234 -640 c 1
 241 -650 254 -658 273 -667 c 128
 292 -676 316 -680 345 -680 c 0
 375 -680 404 -671 432 -653 c 128
 460 -635 481 -614 496 -587 c 0
 506 -569 510 -546 510 -518 c 128
 510 -490 508 -461 505 -432 c 0
 504 -427 502 -416 499 -397 c 128
 496 -378 492 -358 489 -338 c 0
 486 -314 482 -287 477 -258 c 1
499 1039 m 0
 472 1039 449 1027 429 1002 c 128
 409 977 392 945 379 907 c 128
 366 869 358 827 354 781 c 128
 350 735 351 691 357 649 c 1
 380 666 403 687 428 711 c 128
 453 735 475 761 495 788 c 128
 515 815 531 843 544 871 c 128
 557 899 562 926 560 951 c 0
 559 959 558 969 556 979 c 128
 554 989 551 999 546 1008 c 128
 541 1017 535 1024 527 1030 c 128
 519 1036 511 1039 499 1039 c 0
497 -216 m 1
 526 -206 549 -192 565 -176 c 128
 581 -160 594 -142 602 -123 c 128
 610 -104 614 -85 615 -66 c 128
 616 -47 616 -29 615 -14 c 0
 614 -2 611 14 607 32 c 128
 603 50 594 68 582 85 c 128
 570 102 552 116 529 127 c 128
 506 138 477 143 439 141 c 1
 497 -216 l 1
413 139 m 1
 385 138 362 132 344 122 c 128
 326 112 312 101 301 87 c 128
 290 73 283 58 279 42 c 128
 275 26 273 12 274 0 c 256
 275 -12 278 -25 283 -38 c 128
 288 -51 294 -63 302 -74 c 128
 310 -85 318 -96 327 -105 c 128
 336 -114 345 -121 355 -126 c 1
 353 -128 354 -128 352 -130 c 128
 350 -132 350 -131 348 -133 c 256
 347 -134 346 -136 345 -137 c 0
 324 -127 305 -115 289 -101 c 128
 273 -87 263 -77 258 -71 c 0
 250 -61 244 -51 239 -43 c 128
 234 -35 228 -26 225 -17 c 128
 222 -8 219 2 217 13 c 128
 215 24 213 37 212 52 c 0
 211 66 212 82 215 98 c 128
 218 114 224 130 232 146 c 128
 240 162 250 179 263 194 c 128
 276 209 290 224 307 238 c 0
 316 245 324 250 331 254 c 128
 338 258 345 262 351 265 c 128
 357 268 364 270 370 272 c 128
 376 274 383 276 391 278 c 1
 360 463 l 1
 352 458 339 448 321 434 c 128
 303 420 282 403 260 383 c 128
 238 363 217 342 195 319 c 128
 173 296 156 274 142 253 c 0
 117 214 99 178 85 145 c 128
 71 112 67 77 70 39 c 0
 73 -4 85 -44 109 -81 c 128
 133 -118 163 -150 200 -175 c 128
 237 -200 279 -218 326 -228 c 128
 373 -238 421 -236 472 -224 c 1
 461 -156 451 -96 442 -43 c 0
 438 -20 434 2 431 24 c 128
 428 46 424 65 421 82 c 128
 418 99 416 112 415 123 c 128
 413 139 413 139 413 139 c 1
EndSplineSet
Validated: 33
EndChar

StartChar: two
Encoding: 50 50 11
Width: 671
Flags: HW
LayerCount: 2
Fore
SplineSet
184 517 m 1
 225 517 l 1
 225 -518 l 1
 184 -518 l 1
 184 517 l 1
1 -518 m 1
 1 517 l 1
 124 517 l 1
 124 -518 l 1
 1 -518 l 1
326 227 m 1
 329 219 332 208 335 194 c 128
 338 180 343 165 351 152 c 128
 359 139 370 127 386 117 c 128
 402 107 424 102 453 103 c 0
 469 103 483 107 494 115 c 128
 505 123 515 132 522 144 c 128
 529 156 534 169 538 183 c 128
 542 197 544 211 546 224 c 128
 548 237 549 249 549 259 c 128
 549 274 549 275 549 282 c 0
 549 301 547 323 544 348 c 128
 541 373 534 396 526 418 c 128
 518 440 507 459 494 474 c 128
 481 489 464 497 444 497 c 0
 417 497 395 493 376 486 c 128
 357 479 342 472 332 464 c 128
 322 456 316 450 315 444 c 128
 314 438 318 436 328 438 c 0
 363 445 388 442 401 429 c 128
 414 416 421 396 421 369 c 0
 421 358 418 348 413 340 c 128
 408 332 402 324 394 319 c 128
 386 314 379 310 371 307 c 128
 363 304 355 303 350 303 c 0
 336 303 325 306 314 313 c 128
 303 320 295 329 288 339 c 128
 281 349 276 360 273 372 c 128
 270 384 269 393 270 402 c 0
 274 431 286 455 303 471 c 128
 320 487 340 499 363 507 c 128
 386 515 410 520 434 521 c 128
 458 522 479 523 497 522 c 0
 520 521 541 514 562 502 c 128
 583 490 601 473 617 452 c 128
 633 431 646 407 656 379 c 128
 666 351 671 321 671 289 c 0
 671 259 667 229 659 201 c 128
 651 173 641 148 625 125 c 128
 609 102 589 84 565 71 c 128
 541 58 513 51 481 51 c 0
 465 51 450 53 437 57 c 128
 424 61 413 67 403 72 c 128
 393 77 386 82 380 87 c 128
 374 92 370 95 368 96 c 0
 365 92 360 85 356 75 c 128
 352 65 349 55 346 44 c 128
 343 33 340 24 338 15 c 128
 336 6 335 1 335 0 c 256
 335 -1 336 -6 338 -15 c 128
 340 -24 343 -33 346 -44 c 128
 349 -55 352 -65 356 -75 c 128
 360 -85 365 -92 368 -96 c 0
 370 -95 374 -92 380 -87 c 128
 386 -82 393 -77 403 -72 c 128
 413 -67 424 -61 437 -57 c 128
 450 -53 465 -50 481 -50 c 0
 513 -50 541 -57 565 -71 c 128
 589 -85 609 -102 625 -125 c 128
 641 -148 651 -173 659 -202 c 128
 667 -231 671 -260 671 -289 c 0
 671 -321 666 -351 656 -379 c 128
 646 -407 633 -431 617 -452 c 128
 601 -473 583 -490 562 -502 c 128
 541 -514 520 -521 497 -522 c 0
 479 -523 458 -522 434 -521 c 128
 410 -520 386 -515 363 -507 c 128
 340 -499 320 -486 303 -470 c 128
 286 -454 274 -431 270 -402 c 0
 269 -393 270 -384 273 -372 c 128
 276 -360 281 -349 288 -339 c 128
 295 -329 303 -320 314 -313 c 128
 325 -306 336 -302 350 -302 c 0
 355 -302 363 -304 371 -307 c 128
 379 -310 386 -314 394 -319 c 128
 402 -324 408 -332 413 -340 c 128
 418 -348 421 -358 421 -369 c 0
 421 -396 413 -417 398 -430 c 128
 383 -443 359 -446 328 -438 c 0
 318 -436 314 -438 316 -444 c 128
 318 -450 324 -456 335 -464 c 128
 346 -472 360 -479 379 -486 c 128
 398 -493 419 -497 444 -497 c 0
 464 -497 481 -489 494 -474 c 128
 507 -459 518 -440 526 -418 c 128
 534 -396 541 -373 544 -348 c 128
 547 -323 549 -301 549 -282 c 0
 549 -276 549 -276 549 -260 c 128
 549 -249 548 -237 546 -224 c 128
 544 -211 542 -197 538 -183 c 128
 534 -169 529 -156 522 -144 c 128
 515 -132 505 -123 494 -115 c 128
 483 -107 469 -103 453 -103 c 0
 423 -103 400 -108 385 -118 c 128
 370 -128 359 -139 352 -152 c 128
 345 -165 339 -179 336 -193 c 128
 333 -207 328 -217 322 -225 c 1
 323 -193 319 -164 311 -137 c 128
 303 -110 295 -86 285 -66 c 0
 273 -43 260 -20 245 0 c 1
 261 20 275 42 287 66 c 0
 297 86 306 110 314 137 c 128
 322 164 327 194 326 227 c 1
EndSplineSet
Validated: 33
EndChar

StartChar: seven
Encoding: 55 55 12
Width: 737
Flags: HW
LayerCount: 2
Fore
SplineSet
296 -938 m 0
 263 -937 237 -929 219 -913 c 128
 201 -897 191 -880 191 -860 c 0
 191 -839 198 -822 210 -809 c 128
 222 -796 235 -787 249 -781 c 1
 238 -775 227 -767 217 -756 c 128
 207 -745 202 -732 202 -716 c 0
 203 -690 212 -668 231 -652 c 128
 250 -636 272 -628 298 -629 c 0
 309 -629 319 -631 330 -635 c 128
 341 -639 350 -645 359 -652 c 128
 368 -659 374 -667 379 -677 c 128
 384 -687 386 -699 386 -711 c 0
 386 -723 382 -733 373 -745 c 128
 364 -757 355 -766 345 -771 c 1
 356 -779 367 -789 379 -802 c 128
 391 -815 397 -833 397 -853 c 0
 397 -865 394 -876 388 -887 c 128
 382 -898 374 -906 365 -914 c 128
 356 -922 345 -928 333 -932 c 128
 321 -936 308 -938 296 -938 c 0
298 -648 m 0
 282 -647 269 -652 260 -662 c 128
 251 -672 247 -682 246 -695 c 0
 246 -707 249 -716 257 -723 c 128
 265 -730 273 -735 283 -740 c 0
 290 -743 294 -745 296 -746 c 2
 323 -757 l 1
 333 -753 340 -746 345 -736 c 128
 350 -726 352 -718 352 -708 c 0
 353 -694 348 -680 337 -668 c 128
 326 -656 313 -649 298 -648 c 0
274 -796 m 1
 261 -799 251 -806 243 -818 c 128
 235 -830 230 -843 230 -857 c 0
 229 -873 236 -887 249 -900 c 128
 262 -913 278 -920 296 -920 c 0
 315 -921 329 -915 337 -903 c 128
 345 -891 349 -879 349 -866 c 0
 350 -850 345 -839 335 -830 c 128
 325 -821 314 -814 300 -808 c 2
 274 -796 l 1
542 -205 m 0
 532 -229 523 -249 515 -264 c 128
 507 -279 498 -294 488 -309 c 128
 478 -324 465 -341 450 -360 c 128
 435 -379 414 -403 388 -433 c 0
 380 -443 368 -453 352 -465 c 128
 336 -477 319 -489 300 -501 c 128
 281 -513 261 -524 239 -534 c 128
 217 -544 197 -552 177 -559 c 0
 158 -566 138 -572 119 -577 c 128
 100 -582 83 -586 67 -589 c 0
 49 -593 30 -597 12 -600 c 1
 5 -585 l 1
 37 -574 69 -561 101 -547 c 0
 128 -535 156 -519 186 -502 c 128
 216 -485 241 -465 263 -442 c 0
 318 -383 360 -319 389 -248 c 128
 418 -177 431 -97 430 -7 c 0
 430 13 427 36 423 63 c 128
 419 90 411 115 400 139 c 128
 389 163 373 184 353 201 c 128
 333 218 306 226 274 226 c 0
 256 226 237 223 216 215 c 128
 195 207 176 198 159 185 c 128
 142 172 128 157 117 140 c 128
 106 123 101 104 103 84 c 0
 104 81 106 80 110 81 c 128
 114 82 119 84 126 86 c 128
 133 88 142 90 153 92 c 128
 164 94 176 95 190 94 c 0
 205 93 218 89 229 80 c 128
 240 71 249 61 256 48 c 128
 263 35 267 21 269 6 c 128
 271 -9 270 -25 267 -39 c 0
 262 -62 252 -80 237 -93 c 128
 222 -106 202 -113 176 -113 c 0
 160 -113 144 -110 129 -104 c 128
 114 -98 100 -90 88 -79 c 128
 76 -68 67 -55 60 -40 c 128
 53 -25 49 -8 49 12 c 0
 48 41 52 67 59 90 c 128
 66 113 75 132 86 148 c 128
 97 164 107 178 119 189 c 128
 131 200 143 208 153 214 c 0
 178 230 203 240 229 246 c 128
 255 252 280 255 303 256 c 0
 329 256 355 252 381 243 c 128
 407 234 433 222 456 206 c 128
 479 190 500 171 518 149 c 128
 536 127 550 102 560 75 c 0
 568 52 573 29 575 3 c 128
 577 -23 577 -49 574 -74 c 128
 571 -99 568 -123 562 -146 c 128
 556 -169 550 -189 542 -205 c 0
617 126 m 0
 616 142 622 154 633 165 c 128
 644 176 657 181 673 181 c 0
 689 182 702 177 713 167 c 128
 724 157 730 144 730 128 c 0
 731 112 726 99 715 88 c 128
 704 77 691 71 675 71 c 0
 659 70 645 75 634 86 c 128
 623 97 617 110 617 126 c 0
617 -132 m 0
 617 -116 623 -103 634 -93 c 128
 645 -83 658 -78 674 -77 c 0
 690 -77 703 -82 714 -92 c 128
 725 -102 731 -114 731 -130 c 0
 732 -146 727 -159 716 -170 c 128
 705 -181 692 -187 676 -187 c 0
 660 -188 646 -183 635 -172 c 128
 624 -161 618 -148 617 -132 c 0
EndSplineSet
Validated: 33
EndChar

StartChar: eight
Encoding: 56 56 13
Width: 698
Flags: HW
LayerCount: 2
Fore
SplineSet
560 950 m 0
 559 958 558 968 556 978 c 128
 554 988 551 998 546 1007 c 128
 541 1016 535 1024 527 1030 c 128
 519 1036 510 1039 499 1039 c 0
 472 1039 449 1027 429 1002 c 128
 409 977 392 945 379 907 c 128
 366 869 358 827 354 781 c 128
 350 735 351 690 357 648 c 1
 379 666 402 687 427 711 c 128
 452 735 475 761 495 788 c 128
 515 815 531 842 544 870 c 128
 557 898 562 925 560 950 c 0
615 -15 m 0
 614 -2 611 14 607 32 c 128
 603 50 594 67 582 84 c 128
 570 101 552 115 529 126 c 128
 506 137 476 142 438 140 c 1
 497 -216 l 1
 526 -206 549 -194 565 -177 c 128
 581 -160 594 -142 602 -123 c 128
 610 -104 614 -86 615 -67 c 128
 616 -48 616 -30 615 -15 c 0
471 -224 m 1
 471 -224 471 -224 467 -197 c 128
 464 -179 460 -157 456 -130 c 128
 452 -103 446 -74 441 -42 c 128
 436 -10 430 18 426 45 c 128
 422 72 419 94 416 112 c 128
 412 139 412 139 412 139 c 1
 384 138 361 132 343 122 c 128
 325 112 310 101 300 87 c 128
 290 73 283 58 279 42 c 128
 275 26 272 12 273 0 c 256
 274 -12 277 -25 282 -38 c 128
 287 -51 293 -63 301 -74 c 128
 309 -85 317 -96 326 -105 c 128
 335 -114 344 -121 354 -126 c 1
 353 -127 352 -129 351 -130 c 128
 350 -131 349 -132 348 -133 c 256
 347 -134 346 -136 345 -137 c 0
 323 -127 304 -115 288 -101 c 128
 272 -87 262 -78 257 -71 c 0
 249 -61 243 -53 238 -44 c 128
 233 -35 228 -26 225 -17 c 128
 222 -8 219 2 217 13 c 128
 215 24 212 37 211 52 c 0
 210 66 211 82 215 98 c 128
 219 114 224 130 232 146 c 128
 240 162 250 179 263 194 c 128
 276 209 290 224 307 238 c 0
 316 245 324 250 331 254 c 128
 338 258 345 261 351 264 c 128
 357 267 364 269 370 271 c 128
 376 273 382 276 390 278 c 1
 359 463 l 1
 351 458 339 448 321 434 c 128
 303 420 282 403 260 383 c 128
 238 363 217 342 195 319 c 128
 173 296 156 274 142 253 c 0
 117 214 99 178 85 145 c 128
 71 112 66 77 69 39 c 0
 72 -4 86 -44 109 -81 c 128
 132 -118 162 -150 199 -175 c 128
 236 -200 278 -218 325 -228 c 128
 372 -238 420 -236 471 -224 c 1
346 -1002 m 0
 313 -1001 287 -993 269 -977 c 128
 251 -961 242 -944 242 -924 c 0
 241 -903 247 -886 260 -873 c 128
 273 -860 286 -851 300 -844 c 1
 288 -839 278 -830 268 -819 c 128
 258 -808 253 -795 253 -779 c 0
 254 -762 258 -747 266 -734 c 128
 274 -721 285 -711 299 -703 c 1
 281 -701 261 -697 242 -691 c 128
 223 -685 204 -675 188 -664 c 128
 172 -653 158 -639 147 -622 c 128
 136 -605 130 -585 129 -562 c 0
 128 -546 129 -529 132 -513 c 128
 135 -497 142 -482 151 -468 c 128
 160 -454 171 -443 185 -434 c 128
 199 -425 217 -420 237 -419 c 0
 249 -418 261 -420 274 -424 c 128
 287 -428 298 -435 309 -443 c 128
 320 -451 328 -462 335 -474 c 128
 342 -486 347 -500 348 -514 c 0
 350 -539 343 -563 325 -587 c 128
 307 -611 276 -628 234 -640 c 1
 240 -650 254 -659 273 -668 c 128
 292 -677 316 -681 345 -681 c 0
 360 -681 375 -678 390 -673 c 128
 405 -668 419 -661 432 -653 c 128
 445 -645 456 -635 467 -624 c 128
 478 -613 487 -601 495 -587 c 0
 505 -570 509 -547 509 -518 c 128
 509 -489 507 -461 504 -432 c 0
 503 -427 501 -416 498 -397 c 128
 495 -378 492 -358 489 -338 c 128
 486 -318 483 -299 481 -283 c 128
 477 -258 477 -258 477 -258 c 1
 458 -261 438 -263 416 -264 c 128
 394 -265 373 -264 353 -263 c 128
 333 -262 313 -259 296 -256 c 128
 279 -253 265 -248 254 -243 c 0
 201 -218 158 -191 126 -163 c 128
 94 -135 69 -106 51 -75 c 128
 33 -44 21 -12 14 20 c 128
 7 52 2 85 0 118 c 0
 -3 153 0 189 9 225 c 128
 18 261 31 295 47 327 c 128
 63 359 81 388 102 416 c 128
 123 444 144 468 166 488 c 0
 191 511 216 534 243 557 c 128
 270 580 299 603 332 628 c 1
 331 637 330 644 329 651 c 128
 328 658 327 665 326 672 c 128
 325 679 323 687 321 696 c 128
 319 705 318 716 317 729 c 0
 317 734 316 744 315 759 c 128
 314 774 313 792 313 813 c 128
 313 834 313 857 314 883 c 128
 315 909 320 937 325 966 c 0
 328 983 336 1005 347 1031 c 128
 358 1057 372 1082 387 1107 c 128
 402 1132 418 1152 435 1170 c 128
 452 1188 468 1197 483 1197 c 0
 495 1197 508 1187 521 1167 c 128
 534 1147 547 1123 559 1095 c 128
 571 1067 580 1037 588 1005 c 128
 596 973 600 946 601 923 c 0
 602 888 600 856 597 829 c 128
 594 802 588 778 582 756 c 128
 576 734 568 715 559 697 c 128
 550 679 539 660 528 642 c 256
 517 624 507 607 496 593 c 128
 485 579 473 565 461 550 c 0
 449 536 436 524 423 514 c 128
 410 504 397 493 384 481 c 1
 390 446 395 415 400 387 c 0
 402 375 404 363 406 351 c 128
 408 339 409 329 411 319 c 128
 413 309 414 300 415 294 c 128
 416 288 417 284 417 282 c 1
 433 284 450 284 468 283 c 128
 486 282 503 279 519 275 c 128
 535 271 549 267 562 262 c 128
 575 257 584 251 592 246 c 0
 628 219 654 188 670 153 c 128
 686 118 694 81 697 45 c 0
 699 16 697 -12 690 -41 c 128
 683 -70 671 -98 655 -124 c 128
 639 -150 618 -175 592 -197 c 128
 566 -219 537 -237 502 -251 c 1
 506 -279 510 -305 513 -329 c 0
 516 -349 519 -370 522 -389 c 128
 525 -408 527 -421 528 -429 c 0
 534 -470 537 -504 536 -530 c 128
 535 -556 530 -578 521 -594 c 0
 509 -614 495 -634 478 -652 c 128
 461 -670 440 -684 413 -694 c 1
 378 -697 l 1
 394 -702 408 -713 420 -726 c 128
 432 -739 437 -755 436 -773 c 0
 436 -785 432 -797 423 -809 c 128
 414 -821 406 -830 396 -835 c 1
 401 -838 408 -842 414 -847 c 128
 420 -852 426 -858 431 -865 c 128
 436 -872 440 -879 443 -888 c 128
 446 -897 449 -906 449 -916 c 0
 449 -928 445 -940 439 -951 c 128
 433 -962 426 -970 416 -978 c 128
 406 -986 395 -992 383 -996 c 128
 371 -1000 359 -1002 346 -1002 c 0
348 -712 m 256
 332 -711 320 -715 311 -724 c 128
 302 -733 297 -745 296 -759 c 0
 296 -771 300 -779 308 -786 c 128
 316 -793 324 -799 334 -804 c 0
 337 -805 339 -806 341 -807 c 128
 344 -808 344 -808 347 -809 c 2
 374 -820 l 1
 384 -815 391 -808 396 -799 c 128
 401 -790 403 -781 403 -771 c 0
 403 -757 399 -743 388 -731 c 128
 377 -719 364 -713 348 -712 c 256
325 -859 m 1
 313 -862 302 -869 294 -881 c 128
 286 -893 282 -906 282 -920 c 0
 282 -928 284 -935 287 -943 c 128
 290 -951 295 -957 301 -963 c 128
 307 -969 313 -974 321 -977 c 128
 329 -980 337 -982 346 -982 c 0
 366 -983 380 -977 388 -966 c 128
 396 -955 400 -943 400 -929 c 0
 401 -914 396 -902 386 -893 c 128
 376 -884 364 -876 351 -871 c 2
 325 -859 l 1
EndSplineSet
Validated: 33
EndChar

StartChar: nine
Encoding: 57 57 14
Width: 699
Flags: HW
LayerCount: 2
Fore
SplineSet
561 951 m 0
 560 959 559 969 557 979 c 128
 555 989 552 999 547 1008 c 128
 542 1017 536 1025 528 1031 c 128
 520 1037 511 1039 500 1039 c 0
 473 1039 450 1027 430 1002 c 128
 410 977 393 945 380 907 c 128
 367 869 359 827 355 781 c 128
 351 735 351 691 357 649 c 1
 380 666 403 687 428 711 c 128
 453 735 476 761 496 788 c 128
 516 815 532 843 545 871 c 128
 558 899 563 926 561 951 c 0
615 -14 m 0
 614 -2 612 14 608 32 c 128
 604 50 595 68 582 85 c 128
 569 102 552 116 529 127 c 128
 506 138 477 143 439 141 c 1
 497 -216 l 1
 526 -206 549 -192 566 -176 c 128
 583 -160 594 -142 602 -123 c 128
 610 -104 614 -85 615 -66 c 128
 616 -47 616 -29 615 -14 c 0
472 -224 m 1
 461 -156 451 -96 442 -43 c 0
 438 -20 434 2 431 24 c 128
 428 46 424 65 421 82 c 128
 418 99 416 112 415 123 c 128
 413 139 413 139 413 139 c 1
 385 138 362 133 344 123 c 128
 326 113 312 101 301 87 c 128
 290 73 283 58 279 42 c 128
 275 26 273 12 274 0 c 256
 275 -12 278 -25 283 -38 c 128
 288 -51 294 -63 302 -74 c 128
 310 -85 318 -96 327 -105 c 128
 336 -114 345 -121 355 -126 c 1
 354 -127 353 -129 352 -130 c 128
 351 -131 350 -132 349 -133 c 256
 348 -134 347 -136 346 -137 c 0
 324 -127 305 -115 289 -101 c 128
 273 -87 263 -77 258 -71 c 0
 250 -61 244 -51 239 -43 c 128
 234 -35 228 -26 225 -17 c 128
 222 -8 219 2 217 13 c 128
 215 24 213 37 212 52 c 0
 211 66 212 82 215 98 c 128
 218 114 224 130 232 146 c 128
 240 162 251 179 263 194 c 128
 275 209 290 224 308 238 c 256
 326 252 341 260 352 265 c 128
 363 270 376 275 391 278 c 1
 360 463 l 1
 352 458 339 448 321 434 c 128
 303 420 282 402 260 383 c 128
 238 364 217 343 195 320 c 128
 173 297 156 275 142 253 c 0
 117 214 99 178 86 145 c 128
 73 112 67 77 70 39 c 0
 73 -4 85 -44 109 -81 c 128
 133 -118 163 -150 200 -175 c 128
 237 -200 279 -218 326 -228 c 128
 373 -238 421 -236 472 -224 c 1
454 1186 m 1
 430 1191 411 1200 398 1214 c 128
 385 1228 378 1244 378 1260 c 0
 377 1281 383 1297 396 1310 c 128
 409 1323 422 1332 436 1339 c 1
 424 1344 413 1353 403 1364 c 128
 393 1375 388 1388 389 1404 c 0
 390 1431 400 1452 418 1468 c 128
 436 1484 458 1492 484 1491 c 0
 495 1491 506 1489 517 1485 c 128
 528 1481 537 1475 546 1468 c 128
 555 1461 561 1453 566 1443 c 128
 571 1433 573 1422 573 1410 c 0
 573 1398 569 1387 560 1375 c 128
 551 1363 542 1355 532 1349 c 1
 537 1346 544 1341 550 1336 c 128
 556 1331 562 1325 567 1318 c 128
 572 1311 577 1304 580 1295 c 128
 583 1286 585 1277 585 1267 c 0
 584 1247 576 1229 561 1214 c 128
 546 1199 528 1190 508 1185 c 1
 519 1175 530 1159 541 1137 c 128
 552 1115 561 1092 570 1067 c 128
 579 1042 586 1017 592 991 c 128
 598 965 601 943 602 924 c 0
 603 888 601 856 598 829 c 128
 595 802 590 779 583 757 c 128
 576 735 568 715 559 697 c 128
 550 679 539 660 529 642 c 0
 518 624 507 607 496 593 c 128
 485 579 474 565 462 551 c 0
 450 536 437 524 424 514 c 128
 411 504 398 493 384 481 c 1
 390 446 395 415 400 387 c 0
 402 375 405 363 407 351 c 128
 409 339 411 329 412 319 c 128
 413 309 415 300 416 294 c 128
 417 288 418 284 418 283 c 1
 434 285 451 285 468 283 c 128
 485 281 503 278 519 275 c 128
 535 272 549 267 562 262 c 128
 575 257 584 252 592 247 c 0
 629 220 655 188 671 153 c 128
 687 118 695 82 698 45 c 0
 700 16 698 -12 691 -41 c 128
 684 -70 672 -98 656 -124 c 128
 640 -150 619 -174 593 -196 c 128
 567 -218 538 -237 503 -251 c 1
 507 -279 511 -305 514 -329 c 0
 517 -349 520 -370 523 -389 c 128
 526 -408 528 -421 529 -429 c 0
 535 -470 538 -504 537 -530 c 128
 536 -556 531 -578 521 -594 c 0
 513 -608 505 -621 495 -634 c 128
 485 -647 474 -659 460 -669 c 128
 446 -679 430 -687 412 -694 c 128
 394 -701 373 -706 350 -707 c 0
 332 -708 312 -706 287 -702 c 128
 262 -698 239 -689 216 -678 c 128
 193 -667 174 -652 158 -633 c 128
 142 -614 132 -590 130 -562 c 0
 129 -546 130 -530 133 -513 c 128
 136 -496 142 -480 151 -467 c 128
 160 -454 171 -443 185 -434 c 128
 199 -425 217 -420 237 -419 c 0
 249 -418 261 -420 274 -424 c 128
 287 -428 299 -435 310 -443 c 128
 321 -451 329 -462 336 -474 c 128
 343 -486 348 -500 349 -514 c 0
 350 -539 343 -563 325 -587 c 128
 307 -611 278 -628 236 -640 c 1
 242 -650 255 -658 274 -667 c 128
 293 -676 317 -680 346 -680 c 0
 376 -680 405 -671 432 -653 c 128
 459 -635 481 -613 496 -586 c 0
 506 -569 510 -546 510 -518 c 128
 510 -490 508 -461 505 -432 c 0
 504 -427 503 -416 500 -397 c 128
 497 -378 493 -358 490 -338 c 0
 486 -314 482 -287 477 -258 c 1
 458 -261 438 -263 416 -264 c 128
 394 -265 373 -265 353 -263 c 128
 333 -261 313 -258 296 -255 c 128
 279 -252 265 -248 254 -243 c 0
 201 -218 158 -190 126 -162 c 128
 94 -134 69 -105 51 -74 c 128
 33 -43 21 -11 14 21 c 128
 7 53 2 86 0 119 c 0
 -3 154 1 190 10 225 c 128
 19 260 32 295 48 327 c 128
 64 359 82 390 103 417 c 128
 124 444 145 468 166 488 c 0
 191 511 216 535 243 558 c 128
 270 581 300 604 333 629 c 1
 332 638 331 646 330 652 c 128
 329 658 327 665 325 672 c 128
 323 679 322 687 321 696 c 128
 320 705 318 716 317 729 c 0
 316 734 316 744 315 759 c 128
 314 774 313 792 313 813 c 128
 313 834 313 858 315 884 c 128
 317 910 321 938 326 967 c 0
 329 981 334 999 343 1020 c 128
 352 1041 361 1062 373 1083 c 128
 385 1104 398 1124 412 1143 c 128
 426 1162 440 1176 454 1186 c 1
484 1473 m 0
 468 1474 456 1469 447 1459 c 128
 438 1449 433 1438 432 1424 c 0
 432 1412 436 1404 444 1397 c 128
 452 1390 460 1384 470 1380 c 0
 475 1377 480 1375 483 1374 c 2
 510 1363 l 1
 520 1368 527 1375 532 1384 c 128
 537 1393 540 1402 540 1412 c 0
 541 1427 535 1441 524 1454 c 128
 513 1467 500 1473 484 1473 c 0
462 1324 m 1
 449 1321 438 1314 430 1302 c 128
 422 1290 418 1278 418 1264 c 0
 418 1256 420 1248 423 1241 c 128
 426 1234 431 1227 437 1221 c 128
 443 1215 449 1211 457 1207 c 128
 465 1203 473 1201 482 1201 c 0
 502 1200 516 1206 524 1217 c 128
 532 1228 537 1240 537 1254 c 0
 538 1270 532 1282 522 1291 c 128
 512 1300 500 1308 487 1313 c 2
 462 1324 l 1
EndSplineSet
Validated: 33
EndChar

StartChar: three
Encoding: 51 51 15
Width: 740
Flags: HW
LayerCount: 2
Fore
SplineSet
514 -268 m 0
 508 -280 502 -290 496 -300 c 128
 490 -310 484 -319 478 -328 c 128
 472 -337 466 -345 459 -354 c 128
 452 -363 444 -372 435 -382 c 256
 426 -392 418 -402 410 -410 c 128
 402 -418 395 -425 387 -433 c 128
 379 -441 370 -448 361 -455 c 128
 352 -462 343 -470 332 -478 c 0
 318 -488 305 -497 293 -505 c 128
 281 -513 270 -519 258 -525 c 128
 246 -531 233 -537 220 -542 c 128
 207 -547 193 -553 177 -559 c 256
 161 -565 144 -571 125 -576 c 128
 106 -581 89 -586 72 -589 c 0
 52 -593 32 -597 12 -600 c 1
 5 -585 l 1
 37 -574 69 -561 101 -547 c 0
 128 -535 156 -519 186 -502 c 128
 216 -485 241 -465 263 -442 c 0
 318 -383 360 -319 389 -248 c 128
 418 -177 431 -97 430 -7 c 0
 430 13 427 36 423 63 c 128
 419 90 411 115 400 139 c 128
 389 163 373 184 353 201 c 128
 333 218 306 226 274 226 c 0
 256 226 237 223 216 215 c 128
 195 207 176 198 159 185 c 128
 142 172 128 157 117 140 c 128
 106 123 101 104 103 84 c 0
 104 81 106 80 110 81 c 128
 114 82 119 84 126 86 c 128
 133 88 142 90 153 92 c 128
 164 94 176 95 190 94 c 0
 205 93 218 89 229 80 c 128
 240 71 249 61 256 48 c 128
 263 35 267 21 269 6 c 128
 271 -9 270 -25 267 -39 c 0
 262 -62 252 -80 237 -93 c 128
 222 -106 202 -113 176 -113 c 0
 160 -113 144 -110 129 -104 c 128
 114 -98 100 -90 88 -79 c 128
 76 -68 67 -55 60 -40 c 128
 53 -25 49 -8 49 12 c 0
 48 41 52 67 59 90 c 128
 66 113 75 132 86 148 c 128
 97 164 107 178 119 189 c 128
 131 200 143 208 153 214 c 0
 178 230 203 240 229 246 c 128
 255 252 280 255 303 256 c 0
 329 256 355 252 381 243 c 128
 407 234 433 222 456 206 c 128
 479 190 500 171 518 149 c 128
 536 127 550 102 560 75 c 0
 572 44 578 11 578 -23 c 128
 578 -57 574 -95 565 -135 c 0
 562 -149 559 -161 556 -172 c 128
 553 -183 549 -194 545 -204 c 128
 541 -214 536 -224 531 -234 c 128
 523 -249 523 -250 514 -268 c 0
617 126 m 0
 616 142 622 154 633 165 c 128
 644 176 657 181 673 181 c 0
 689 182 702 177 713 167 c 128
 724 157 730 144 730 128 c 0
 731 112 726 99 715 88 c 128
 704 77 691 71 675 71 c 0
 659 70 645 75 634 86 c 128
 623 97 617 110 617 126 c 0
617 -132 m 0
 617 -116 623 -103 634 -93 c 128
 645 -83 658 -78 674 -77 c 0
 690 -77 703 -82 714 -92 c 128
 725 -102 731 -114 731 -130 c 0
 732 -146 727 -159 716 -170 c 128
 705 -181 692 -187 676 -187 c 0
 660 -188 646 -183 635 -172 c 128
 624 -161 618 -148 617 -132 c 0
EndSplineSet
Validated: 33
EndChar

StartChar: b
Encoding: 98 98 16
Width: 454
Flags: HW
LayerCount: 2
Fore
SplineSet
144 27 m 0
 147 8 151 -11 155 -27 c 128
 159 -43 165 -58 172 -70 c 128
 179 -82 188 -91 199 -98 c 128
 210 -105 225 -109 242 -109 c 0
 254 -109 265 -105 274 -100 c 128
 283 -95 291 -88 297 -80 c 128
 303 -72 307 -62 310 -52 c 128
 313 -42 313 -33 312 -23 c 0
 309 -5 306 14 302 30 c 128
 298 46 291 61 283 73 c 128
 275 85 265 95 254 102 c 128
 243 109 229 113 212 113 c 0
 200 113 189 109 180 104 c 128
 171 99 164 92 158 84 c 128
 152 76 148 66 146 56 c 128
 144 46 143 37 144 27 c 0
30 255 m 1
 30 62 l 1
 46 85 69 103 102 118 c 128
 135 133 172 140 214 140 c 0
 236 140 258 138 279 135 c 128
 300 132 320 127 338 120 c 128
 356 113 373 104 388 94 c 128
 403 84 414 71 424 57 c 1
 424 255 l 1
 455 255 l 1
 455 -252 l 1
 424 -252 l 1
 424 -58 l 1
 408 -79 384 -97 352 -111 c 128
 320 -125 283 -132 243 -132 c 0
 220 -132 198 -130 176 -126 c 128
 154 -122 134 -117 115 -110 c 128
 96 -103 80 -93 65 -82 c 128
 50 -71 39 -58 30 -43 c 1
 30 -252 l 1
 -1 -252 l 1
 -1 255 l 1
 30 255 l 1
EndSplineSet
Validated: 1
EndChar

StartChar: c
Encoding: 99 99 17
Width: 608
Flags: HW
LayerCount: 2
Fore
SplineSet
503 -251 m 1
 503 -60 l 1
 487 -82 463 -100 430 -115 c 128
 397 -130 360 -137 319 -137 c 0
 273 -136 231 -129 192 -116 c 128
 153 -103 124 -82 104 -55 c 1
 104 -251 l 1
 75 -251 l 1
 75 255 l 1
 104 255 l 1
 104 56 l 1
 120 79 145 98 178 113 c 128
 211 128 248 135 290 135 c 0
 336 135 378 128 417 114 c 128
 456 100 485 78 503 48 c 1
 503 255 l 1
 532 255 l 1
 532 -251 l 1
 503 -251 l 1
29 255 m 1
 29 -251 l 1
 -1 -251 l 1
 -1 255 l 1
 29 255 l 1
608 255 m 1
 608 -251 l 1
 579 -251 l 1
 579 255 l 1
 608 255 l 1
216 22 m 0
 219 4 223 -15 227 -31 c 128
 231 -47 237 -62 245 -74 c 128
 253 -86 263 -95 275 -102 c 128
 287 -109 301 -113 319 -113 c 0
 332 -113 344 -109 354 -104 c 128
 364 -99 372 -92 378 -84 c 128
 384 -76 389 -67 392 -57 c 128
 395 -47 395 -38 394 -28 c 0
 391 -9 386 10 382 26 c 128
 378 42 372 57 364 69 c 128
 356 81 345 91 333 98 c 128
 321 105 306 109 288 109 c 0
 275 109 264 105 254 100 c 128
 244 95 236 88 230 79 c 128
 224 70 220 61 218 51 c 128
 216 41 215 32 216 22 c 0
EndSplineSet
Validated: 1
EndChar

StartChar: parenleft
Encoding: 40 40 18
Width: 351
Flags: HW
LayerCount: 2
Fore
SplineSet
138 216 m 256
 156 221 172 220 184 213 c 128
 196 206 206 196 213 184 c 128
 220 172 224 159 225 144 c 128
 226 129 225 116 222 106 c 1
 233 107 243 110 252 114 c 128
 261 118 270 123 280 131 c 256
 290 139 297 147 302 155 c 128
 307 163 314 171 322 181 c 1
 337 173 l 1
 321 112 304 44 285 -29 c 0
 269 -92 249 -165 227 -249 c 128
 205 -333 181 -424 155 -522 c 1
 115 -522 l 1
 124 -498 131 -476 139 -453 c 0
 146 -434 153 -415 159 -396 c 128
 165 -377 170 -362 173 -351 c 0
 182 -320 190 -294 196 -270 c 128
 202 -246 207 -227 212 -211 c 0
 217 -193 221 -177 225 -163 c 1
 219 -168 211 -174 201 -181 c 128
 191 -188 179 -195 167 -201 c 128
 155 -207 142 -214 129 -219 c 128
 116 -224 102 -226 90 -227 c 0
 72 -228 57 -225 44 -218 c 128
 31 -211 20 -202 12 -190 c 128
 4 -178 0 -166 -2 -152 c 128
 -4 -138 -1 -124 3 -110 c 128
 7 -96 15 -84 26 -73 c 128
 37 -62 53 -55 71 -50 c 256
 89 -45 105 -46 117 -53 c 128
 129 -60 138 -70 145 -82 c 128
 152 -94 156 -108 157 -122 c 128
 158 -136 158 -149 155 -159 c 1
 165 -158 174 -156 183 -153 c 128
 192 -150 201 -144 211 -135 c 0
 217 -130 222 -124 225 -120 c 128
 228 -116 232 -111 234 -106 c 128
 236 -101 239 -97 241 -91 c 128
 243 -85 247 -79 250 -71 c 0
 250 -70 251 -65 253 -56 c 128
 255 -47 259 -37 262 -24 c 128
 265 -11 268 3 272 18 c 128
 276 33 279 46 282 59 c 128
 285 72 288 82 290 90 c 128
 293 102 293 102 293 102 c 1
 287 97 278 92 268 85 c 128
 258 78 246 72 234 65 c 128
 222 58 209 52 196 47 c 128
 183 42 170 40 158 39 c 0
 140 38 125 41 112 48 c 128
 99 55 89 64 81 76 c 128
 73 88 69 101 67 115 c 128
 65 129 66 143 70 157 c 128
 74 171 83 182 94 193 c 128
 105 204 120 211 138 216 c 256
EndSplineSet
Validated: 33
EndChar

StartChar: A
Encoding: 65 65 19
Width: 1000
VWidth: 1000
Flags: H
LayerCount: 2
Back
SplineSet
135 211 m 256
 153 215.666666667 168 214.666666667 180 208 c 128
 192 201.333333333 201.333333333 192 208 180 c 128
 214.666666667 168 218.5 154.833333333 219.5 140.5 c 128
 220.5 126.166666667 219.666666667 114 217 104 c 1
 227.666666667 105.333333333 237.333333333 107.833333333 246 111.5 c 128
 254.666666667 115.166666667 263.666666667 120.666666667 273 128 c 256
 282.333333333 135.333333333 289.666666667 143 295 151 c 128
 300.333333333 159 306.666666667 167.666666667 314 177 c 1
 329 169 l 1
 313.666666667 109 296.666666667 43.3333333333 278 -28 c 0
 262 -89.3333333333 243.166666667 -161.166666667 221.5 -243.5 c 128
 199.833333333 -325.833333333 176.333333333 -414.666666667 151 -510 c 1
 112 -510 l 1
 120.666666667 -486.666666667 128.666666667 -464 136 -442 c 0
 142.666666667 -423.333333333 149 -404.833333333 155 -386.5 c 128
 161 -368.166666667 165.666666667 -353.666666667 169 -343 c 0
 177.666666667 -313 185 -286.5 191 -263.5 c 128
 197 -240.5 202.333333333 -221.333333333 207 -206 c 0
 211.666666667 -188 216 -172.333333333 220 -159 c 1
 214 -163.666666667 206 -169.5 196 -176.5 c 128
 186 -183.5 175 -190.166666667 163 -196.5 c 128
 151 -202.833333333 138.5 -208.5 125.5 -213.5 c 128
 112.5 -218.5 100 -221.333333333 88 -222 c 0
 70.6666666667 -222.666666667 55.5 -219.666666667 42.5 -213 c 128
 29.5 -206.333333333 19.3333333333 -197.333333333 12 -186 c 128
 4.66666666667 -174.666666667 0.166666666667 -162 -1.5 -148 c 128
 -3.16666666667 -134 -1.83333333333 -120.333333333 2.5 -107 c 128
 6.83333333333 -93.6666666667 14.5 -81.8333333333 25.5 -71.5 c 128
 36.5 -61.1666666667 51 -53.6666666667 69 -49 c 256
 87 -44.3333333333 102 -45.3333333333 114 -52 c 128
 126 -58.6666666667 135.333333333 -68 142 -80 c 128
 148.666666667 -92 152.5 -105 153.5 -119 c 128
 154.5 -133 153.666666667 -145 151 -155 c 1
 161 -153.666666667 170.333333333 -151.666666667 179 -149 c 128
 187.666666667 -146.333333333 196.666666667 -140.666666667 206 -132 c 0
 212 -126.666666667 216.666666667 -121.833333333 220 -117.5 c 128
 223.333333333 -113.166666667 226.166666667 -108.666666667 228.5 -104 c 128
 230.833333333 -99.3333333333 233.166666667 -94.1666666667 235.5 -88.5 c 128
 237.833333333 -82.8333333333 240.666666667 -76.3333333333 244 -69 c 0
 244 -68.3333333333 245.166666667 -63.6666666667 247.5 -55 c 128
 249.833333333 -46.3333333333 252.5 -35.6666666667 255.5 -23 c 128
 258.5 -10.3333333333 261.833333333 3.16666666667 265.5 17.5 c 128
 269.166666667 31.8333333333 272.5 45.1666666667 275.5 57.5 c 128
 278.5 69.8333333333 281 80 283 88 c 128
 286 100 286 100 286 100 c 1
 280 95.3333333333 272 89.6666666667 262 83 c 128
 252 76.3333333333 241 69.6666666667 229 63 c 128
 217 56.3333333333 204.5 50.6666666667 191.5 46 c 128
 178.5 41.3333333333 166 38.6666666667 154 38 c 0
 136.666666667 36.6666666667 121.666666667 39.5 109 46.5 c 128
 96.3333333333 53.5 86.3333333333 62.6666666667 79 74 c 128
 71.6666666667 85.3333333333 67 98 65 112 c 128
 63 126 64.1666666667 139.666666667 68.5 153 c 128
 72.8333333333 166.333333333 80.5 178.166666667 91.5 188.5 c 128
 102.5 198.833333333 117 206.333333333 135 211 c 256
EndSplineSet
Fore
Validated: 1
EndChar

StartChar: plus
Encoding: 43 43 20
Width: 615
Flags: HW
LayerCount: 2
Fore
SplineSet
348 990 m 256
 366 995 382 994 394 987 c 128
 406 980 416 970 423 958 c 128
 430 946 434 933 435 919 c 128
 436 905 435 892 432 882 c 1
 442 883 451 883 458 885 c 128
 465 887 473 891 483 899 c 256
 493 907 501 915 509 925 c 128
 517 935 524 944 531 955 c 1
 546 946 l 1
 158 -521 l 1
 117 -521 l 1
 125 -500 132 -480 140 -461 c 0
 146 -445 153 -428 159 -411 c 128
 165 -394 170 -380 173 -368 c 0
 185 -322 186 -321 196 -283 c 128
 203 -257 209 -235 214 -216 c 0
 220 -194 226 -175 231 -157 c 1
 225 -162 217 -168 206 -176 c 128
 195 -184 183 -191 170 -198 c 128
 157 -205 145 -212 132 -218 c 128
 119 -224 105 -226 93 -227 c 0
 66 -228 45 -221 29 -206 c 128
 13 -191 4 -173 1 -152 c 128
 -2 -131 2 -111 14 -91 c 128
 26 -71 46 -58 74 -50 c 0
 92 -45 108 -46 120 -53 c 128
 132 -60 142 -70 148 -82 c 128
 154 -94 159 -108 160 -122 c 128
 161 -136 160 -149 157 -159 c 1
 168 -158 177 -156 185 -153 c 128
 193 -150 203 -145 214 -137 c 0
 221 -132 228 -126 235 -118 c 128
 242 -110 249 -97 254 -77 c 0
 262 -49 268 -24 274 -1 c 128
 280 22 286 42 290 58 c 0
 295 77 299 95 303 111 c 1
 297 106 289 99 278 91 c 128
 267 83 255 76 242 68 c 128
 229 60 215 53 201 47 c 128
 187 41 174 38 162 37 c 0
 135 36 114 42 98 58 c 128
 82 74 74 92 71 113 c 128
 68 134 72 155 83 175 c 128
 94 195 114 208 142 215 c 0
 160 220 176 219 188 212 c 128
 200 205 210 195 217 183 c 128
 224 171 228 158 229 143 c 128
 230 128 229 115 226 105 c 1
 236 106 246 109 255 112 c 128
 264 115 274 120 286 128 c 0
 295 133 302 142 309 154 c 128
 316 166 323 182 328 204 c 0
 334 228 340 250 345 270 c 128
 350 290 354 308 357 322 c 0
 361 339 366 354 369 366 c 1
 362 361 354 355 343 347 c 128
 332 339 321 332 308 324 c 128
 295 316 282 310 268 304 c 128
 254 298 241 295 229 294 c 0
 202 293 182 299 166 315 c 128
 150 331 141 349 138 370 c 128
 135 391 140 412 151 432 c 128
 162 452 182 465 210 472 c 0
 228 477 244 476 256 469 c 128
 268 462 278 452 285 440 c 128
 292 428 295 415 296 400 c 128
 297 385 297 372 294 362 c 1
 304 363 313 366 322 369 c 128
 331 372 340 376 352 384 c 0
 361 390 368 397 374 406 c 128
 380 415 386 430 392 452 c 0
 397 473 403 493 408 513 c 128
 413 533 417 551 421 566 c 128
 425 581 428 594 431 603 c 128
 435 617 435 616 435 616 c 1
 429 611 421 606 410 599 c 128
 399 592 388 585 375 578 c 128
 362 571 349 565 336 560 c 128
 323 555 310 552 298 551 c 0
 271 550 250 556 234 572 c 128
 218 588 210 606 207 627 c 128
 204 648 208 668 220 688 c 128
 232 708 252 721 280 729 c 0
 298 734 313 733 325 726 c 128
 337 719 346 709 353 697 c 128
 360 685 364 672 365 657 c 128
 366 642 365 630 362 620 c 1
 373 621 384 623 394 625 c 128
 404 627 414 632 423 640 c 0
 431 646 437 655 445 666 c 128
 453 677 459 691 462 706 c 0
 470 737 476 763 481 785 c 128
 489 818 490 819 495 839 c 0
 498 855 501 868 503 878 c 1
 497 873 488 867 478 860 c 128
 468 853 456 845 444 839 c 128
 432 833 419 827 406 822 c 128
 393 817 380 814 368 813 c 0
 350 812 335 815 322 822 c 128
 309 829 299 838 291 850 c 128
 283 862 278 875 276 889 c 128
 274 903 276 917 280 930 c 128
 284 943 293 956 304 967 c 128
 315 978 330 985 348 990 c 256
EndSplineSet
Validated: 37
EndChar

StartChar: asterisk
Encoding: 42 42 21
Width: 519
Flags: HW
LayerCount: 2
Fore
SplineSet
279 729 m 256
 297 734 313 733 325 726 c 128
 337 719 346 709 353 697 c 128
 360 685 364 671 365 657 c 128
 366 643 365 631 362 620 c 1
 372 621 383 623 393 626 c 128
 403 629 413 635 423 645 c 0
 432 654 438 662 443 669 c 128
 448 676 454 684 462 694 c 1
 477 686 l 1
 158 -521 l 1
 117 -521 l 1
 125 -500 131 -480 139 -461 c 0
 145 -445 152 -427 158 -410 c 128
 164 -393 169 -379 172 -367 c 0
 180 -336 187 -307 194 -281 c 128
 201 -255 208 -232 213 -212 c 0
 219 -189 225 -168 230 -148 c 1
 224 -153 216 -159 205 -167 c 128
 194 -175 182 -181 169 -189 c 128
 156 -197 144 -204 131 -209 c 128
 118 -214 104 -217 92 -218 c 0
 74 -219 59 -216 46 -209 c 128
 33 -202 22 -193 14 -181 c 128
 6 -169 3 -156 1 -142 c 128
 -1 -128 1 -114 5 -100 c 128
 9 -86 17 -75 28 -64 c 128
 39 -53 55 -46 73 -41 c 256
 91 -36 107 -37 119 -44 c 128
 131 -51 141 -61 147 -73 c 128
 153 -85 158 -98 159 -113 c 128
 160 -128 159 -141 156 -151 c 1
 167 -150 176 -147 184 -144 c 128
 192 -141 202 -136 213 -128 c 0
 220 -123 226 -118 233 -110 c 128
 240 -102 247 -89 252 -69 c 0
 260 -41 266 -16 272 6 c 128
 278 28 284 46 289 62 c 0
 294 80 299 97 303 111 c 1
 296 106 287 100 276 92 c 128
 265 84 254 76 241 68 c 128
 228 60 215 54 201 48 c 128
 187 42 174 39 162 38 c 0
 144 37 128 40 115 47 c 128
 102 54 92 63 84 75 c 128
 76 87 72 100 70 114 c 128
 68 128 70 142 74 155 c 128
 78 168 87 180 98 191 c 128
 109 202 124 210 142 215 c 256
 160 220 176 219 188 212 c 128
 200 205 211 195 217 183 c 128
 223 171 227 157 228 143 c 128
 229 129 228 116 225 106 c 1
 236 107 246 109 255 112 c 128
 264 115 274 120 286 128 c 0
 295 133 302 142 309 154 c 128
 316 166 323 182 328 204 c 0
 334 228 339 250 344 270 c 128
 349 290 353 308 356 322 c 0
 360 339 365 354 368 366 c 1
 362 361 353 355 342 347 c 128
 331 339 320 331 307 324 c 128
 294 317 281 311 268 305 c 128
 255 299 241 296 229 295 c 0
 211 294 196 297 183 304 c 128
 170 311 160 320 152 332 c 128
 144 344 140 357 138 371 c 128
 136 385 138 399 142 413 c 128
 146 427 154 438 165 449 c 128
 176 460 192 467 210 472 c 256
 228 477 244 476 256 469 c 128
 268 462 278 452 284 440 c 128
 290 428 295 414 296 400 c 128
 297 386 296 374 293 364 c 1
 304 365 313 367 322 369 c 128
 331 371 340 376 351 384 c 0
 361 390 369 397 374 406 c 128
 379 415 385 430 391 452 c 0
 396 473 402 494 407 513 c 128
 412 532 417 549 421 565 c 0
 426 583 430 600 434 616 c 1
 428 611 420 606 409 599 c 128
 398 592 387 584 375 578 c 128
 363 572 349 566 336 561 c 128
 323 556 310 553 298 552 c 0
 280 551 265 554 252 561 c 128
 239 568 229 577 221 589 c 128
 213 601 209 614 207 628 c 128
 205 642 206 656 210 670 c 128
 214 684 223 695 234 706 c 128
 245 717 261 724 279 729 c 256
EndSplineSet
Validated: 33
EndChar

StartChar: parenright
Encoding: 41 41 22
Width: 483
Flags: HW
LayerCount: 2
Fore
SplineSet
209 475 m 256
 227 480 243 479 255 472 c 128
 267 465 277 455 284 443 c 128
 291 431 294 417 295 403 c 128
 296 389 296 377 293 367 c 1
 304 368 315 370 325 373 c 128
 335 376 344 382 354 392 c 0
 363 401 370 409 375 414 c 128
 380 419 385 428 392 440 c 1
 408 432 l 1
 157 -518 l 1
 116 -518 l 1
 124 -495 131 -473 139 -452 c 0
 146 -434 153 -415 159 -396 c 128
 165 -377 171 -362 175 -350 c 0
 185 -319 193 -292 200 -268 c 128
 207 -244 212 -224 217 -207 c 0
 222 -187 227 -170 230 -154 c 1
 224 -159 216 -164 205 -172 c 128
 194 -180 182 -187 169 -195 c 128
 156 -203 144 -209 131 -214 c 128
 118 -219 104 -222 92 -223 c 0
 74 -224 59 -221 46 -214 c 128
 33 -207 22 -198 14 -186 c 128
 6 -174 3 -161 1 -147 c 128
 -1 -133 1 -119 5 -105 c 128
 9 -91 17 -80 28 -69 c 128
 39 -58 55 -51 73 -46 c 256
 91 -41 107 -42 119 -49 c 128
 131 -56 141 -66 147 -78 c 128
 153 -90 158 -104 159 -118 c 128
 160 -132 159 -145 156 -156 c 1
 167 -155 176 -153 185 -151 c 128
 194 -149 203 -144 214 -136 c 0
 221 -131 228 -124 235 -113 c 128
 242 -102 248 -90 253 -74 c 0
 261 -46 268 -20 274 3 c 128
 280 26 286 45 290 61 c 0
 295 80 299 98 302 114 c 1
 296 109 287 103 276 95 c 128
 265 87 254 79 241 71 c 128
 228 63 214 57 200 51 c 128
 186 45 173 42 161 41 c 0
 143 40 128 43 115 50 c 128
 102 57 92 66 84 78 c 128
 76 90 72 103 70 117 c 128
 68 131 69 145 73 159 c 128
 77 173 86 184 97 195 c 128
 108 206 123 213 141 218 c 256
 159 223 175 222 187 215 c 128
 199 208 209 198 216 186 c 128
 223 174 227 160 228 146 c 128
 229 132 228 120 225 110 c 1
 236 111 246 113 255 115 c 128
 264 117 273 123 283 133 c 0
 292 142 299 151 307 161 c 128
 315 171 322 186 327 208 c 0
 333 232 339 254 344 274 c 128
 349 294 354 311 357 325 c 0
 361 341 366 356 369 369 c 1
 363 364 354 358 343 350 c 128
 332 342 320 334 307 327 c 128
 294 320 281 314 267 308 c 128
 253 302 240 299 228 298 c 0
 210 297 195 300 182 307 c 128
 169 314 160 323 152 335 c 128
 144 347 139 360 137 374 c 128
 135 388 137 402 141 416 c 128
 145 430 153 441 164 452 c 128
 175 463 191 470 209 475 c 256
EndSplineSet
Validated: 33
EndChar

StartChar: D
Encoding: 68 68 23
Width: 326
Flags: HW
LayerCount: 2
Fore
SplineSet
8 -1 m 256
 15 17 25 34 39 50 c 128
 53 66 70 80 88 92 c 128
 106 104 126 113 147 119 c 128
 168 125 190 129 212 129 c 256
 234 129 253 125 269 118 c 128
 285 111 298 102 308 90 c 128
 318 78 324 64 326 48 c 128
 328 32 326 14 319 -4 c 256
 312 -22 302 -40 288 -56 c 128
 274 -72 257 -86 239 -98 c 128
 221 -110 201 -119 179 -125 c 128
 157 -131 136 -135 115 -135 c 0
 93 -135 74 -131 58 -124 c 128
 42 -117 29 -107 19 -95 c 128
 9 -83 3 -69 1 -53 c 128
 -1 -37 1 -19 8 -1 c 256
EndSplineSet
Validated: 33
EndChar

StartChar: numbersign
Encoding: 35 35 24
Width: 307
Flags: HW
LayerCount: 2
Fore
SplineSet
308 139 m 1
 308 -136 l 1
 -1 -136 l 1
 -1 139 l 1
 308 139 l 1
EndSplineSet
Validated: 1
EndChar

StartChar: quotesingle
Encoding: 39 39 25
Width: 311
Flags: HW
LayerCount: 2
Fore
SplineSet
74 218 m 0
 92 223 108 222 120 215 c 128
 132 208 142 198 148 186 c 128
 154 174 159 161 160 146 c 128
 161 131 160 119 157 109 c 1
 168 110 177 112 186 115 c 128
 195 118 204 123 214 133 c 0
 223 142 230 150 236 158 c 128
 242 166 249 173 257 183 c 1
 271 175 l 1
 158 -254 l 1
 117 -254 l 1
 124 -231 130 -209 138 -187 c 0
 144 -169 151 -151 157 -132 c 128
 163 -113 168 -97 173 -85 c 0
 184 -55 193 -29 200 -5 c 128
 207 19 213 39 217 55 c 0
 222 74 225 91 228 105 c 1
 222 100 214 95 203 88 c 128
 192 81 181 74 169 67 c 128
 157 60 144 54 131 49 c 128
 118 44 105 41 93 40 c 0
 66 39 45 45 29 61 c 128
 13 77 4 95 1 116 c 128
 -2 137 2 158 14 178 c 128
 26 198 46 211 74 218 c 0
EndSplineSet
Validated: 33
EndChar

StartChar: ampersand
Encoding: 38 38 26
Width: 149
Flags: HW
LayerCount: 2
Fore
SplineSet
84 332 m 0
 84 319 87 308 93 298 c 128
 99 288 106 279 114 270 c 128
 122 261 128 253 134 243 c 128
 140 233 143 222 143 210 c 0
 143 192 140 177 134 166 c 128
 128 155 122 145 114 136 c 128
 106 127 99 119 93 109 c 128
 87 99 84 87 84 72 c 0
 84 66 86 58 89 50 c 128
 92 42 97 34 102 26 c 128
 107 18 112 10 117 2 c 128
 122 -6 127 -11 131 -16 c 1
 114 -25 l 1
 102 -13 101 -12 90 -1 c 0
 83 5 77 12 70 18 c 128
 63 24 57 30 54 35 c 0
 42 49 32 64 23 80 c 128
 14 96 9 110 9 122 c 0
 9 140 12 154 18 165 c 128
 24 176 31 186 38 195 c 128
 45 204 52 212 58 222 c 128
 64 232 68 244 68 259 c 0
 68 270 64 280 58 289 c 128
 52 298 45 307 38 317 c 128
 31 327 24 337 18 347 c 128
 12 357 9 369 9 382 c 0
 9 400 12 414 18 425 c 128
 24 436 31 446 38 455 c 128
 45 464 52 472 58 482 c 128
 64 492 68 504 68 519 c 0
 68 535 63 549 53 562 c 128
 43 575 36 588 28 601 c 1
 42 606 l 1
 49 599 55 593 62 587 c 0
 67 582 74 576 80 570 c 128
 86 564 91 559 94 555 c 0
 106 541 116 527 127 511 c 128
 138 495 143 482 143 470 c 0
 143 452 140 437 134 426 c 128
 128 415 122 405 114 396 c 128
 106 387 99 379 93 369 c 128
 87 359 84 347 84 332 c 0
EndSplineSet
Validated: 1
EndChar

StartChar: percent
Encoding: 37 37 27
Width: 326
Flags: HW
LayerCount: 2
Fore
SplineSet
327 257 m 1
 327 110 l 1
 1 110 l 1
 1 257 l 1
 327 257 l 1
EndSplineSet
Validated: 1
EndChar

StartChar: dollar
Encoding: 36 36 28
Width: 325
Flags: HW
LayerCount: 2
Fore
SplineSet
326 131 m 1
 326 0 l 1
 0 0 l 1
 0 131 l 1
 326 131 l 1
EndSplineSet
Validated: 1
EndChar

StartChar: quotedbl
Encoding: 34 34 29
Width: 206
Flags: HW
LayerCount: 2
Fore
SplineSet
210 255 m 1
 210 -1 l 1
 0 -1 l 1
 0 255 l 1
 210 255 l 1
EndSplineSet
Validated: 1
EndChar

StartChar: i
Encoding: 105 105 30
Width: 669
Flags: HW
LayerCount: 2
Fore
SplineSet
378 840 m 1
 379 811 386 786 400 768 c 0
 407 758 422 744 445 726 c 0
 524 663 586 595 630 522 c 1
 632 529 634 536 636 544 c 0
 644 575 643 608 632 645 c 0
 611 716 561 772 485 813 c 0
 456 828 421 837 378 840 c 1
663 98 m 1
 666 47 655 -3 630 -55 c 1
 618 -50 l 1
 639 4 649 49 647 85 c 0
 645 122 634 167 616 221 c 0
 594 284 558 334 507 369 c 0
 476 390 433 411 378 431 c 1
 378 140 l 2
 378 126 376 112 371 99 c 0
 357 63 330 33 290 7 c 128
 250 -19 209 -32 166 -31 c 0
 131 -30 103 -21 82 -3 c 128
 61 15 51 38 51 65 c 0
 51 77 53 89 58 103 c 0
 71 139 98 170 138 196 c 128
 178 222 220 234 263 233 c 0
 305 233 337 221 358 195 c 1
 358 1063 l 1
 373 1063 l 1
 373 1049 375 1035 379 1023 c 128
 383 1011 394 996 409 976 c 0
 420 961 432 947 447 933 c 0
 489 893 513 870 519 864 c 0
 551 832 578 801 600 771 c 0
 633 725 652 684 657 648 c 0
 662 614 660 579 652 544 c 0
 649 531 645 519 638 507 c 1
 645 493 650 477 654 460 c 0
 663 422 663 386 654 353 c 0
 651 342 649 337 646 337 c 256
 643 337 640 344 636 358 c 128
 632 372 629 380 626 380 c 0
 625 379 624 378 623 377 c 0
 626 368 631 340 636 294 c 0
 641 243 644 215 645 210 c 0
 650 191 656 153 663 98 c 1
642 401 m 1
 642 406 639 418 634 436 c 0
 611 510 560 567 481 607 c 0
 450 623 417 632 382 633 c 1
 382 630 382 624 383 618 c 0
 385 597 390 580 400 566 c 0
 401 564 415 549 441 520 c 0
 475 483 475 483 509 446 c 0
 536 415 561 385 582 356 c 0
 592 342 602 322 616 293 c 1
 629 317 637 342 639 367 c 128
 641 392 642 403 642 401 c 1
EndSplineSet
Validated: 37
EndChar

StartChar: j
Encoding: 106 106 31
Width: 669
Flags: HW
LayerCount: 2
Fore
SplineSet
629 183 m 0
 629 143 609 96 571 40 c 0
 538 -10 516 -35 504 -35 c 0
 503 -35 503 -34 503 -33 c 0
 503 -30 507 -21 515 -8 c 0
 561 65 586 128 588 183 c 0
 590 240 561 289 502 331 c 0
 456 363 419 379 392 379 c 0
 389 379 388 379 388 378 c 2
 388 135 l 2
 388 102 373 70 343 40 c 0
 314 13 282 -5 246 -15 c 0
 217 -23 191 -27 168 -27 c 0
 118 -27 84 -10 65 22 c 0
 57 35 53 49 53 65 c 0
 53 92 64 118 86 145 c 128
 108 172 137 192 173 204 c 0
 200 213 226 217 252 217 c 0
 285 217 314 211 339 198 c 1
 339 1030 l 1
 356 1030 l 1
 374 1009 l 1
 418 974 458 938 492 904 c 0
 573 821 622 749 640 688 c 0
 641 685 641 680 641 675 c 0
 641 647 629 600 604 534 c 1
 612 564 615 591 615 618 c 0
 615 649 609 673 597 688 c 0
 573 719 549 749 525 779 c 0
 480 832 434 872 388 899 c 1
 388 669 l 1
 430 637 467 604 499 573 c 0
 575 497 622 429 640 368 c 0
 641 363 642 357 642 350 c 0
 642 329 638 304 628 276 c 128
 618 248 610 236 604 239 c 1
 615 266 621 291 621 315 c 0
 621 337 615 355 605 368 c 0
 578 401 553 429 529 453 c 0
 483 499 436 536 388 564 c 1
 388 501 l 2
 388 502 409 488 451 457 c 0
 499 422 537 386 566 348 c 0
 608 294 629 239 629 183 c 0
388 830 m 1
 430 799 467 769 499 738 c 0
 576 664 623 596 640 535 c 0
 641 530 642 524 642 517 c 0
 642 495 638 470 628 442 c 128
 618 414 610 403 604 406 c 1
 616 433 622 458 622 482 c 0
 622 504 616 522 605 535 c 0
 575 572 550 601 530 621 c 0
 482 669 435 707 388 734 c 1
 388 830 l 1
EndSplineSet
Validated: 37
EndChar

StartChar: period
Encoding: 46 46 32
Width: 256
Flags: HW
LayerCount: 2
Fore
SplineSet
85 -12 m 256
 71 -12 59 -7 49 3 c 128
 39 13 34 25 34 39 c 256
 34 53 39 65 49 75 c 128
 59 85 71 90 85 90 c 256
 99 90 111 85 121 75 c 128
 131 65 136 53 136 39 c 256
 136 25 131 13 121 3 c 128
 111 -7 99 -12 85 -12 c 256
EndSplineSet
Validated: 1
EndChar

StartChar: J
Encoding: 74 74 33
Width: 372
VWidth: 0
Flags: HW
LayerCount: 2
Fore
SplineSet
356 -803 m 1
 339 -803 l 1
 340 92 l 2
 340 127 355 158 385 187 c 0
 414 214 446 233 482 243 c 0
 511 251 537 254 560 254 c 0
 610 254 645 238 664 206 c 0
 672 193 675 179 675 163 c 0
 675 136 664 109 642 82 c 0
 620 55 591 36 555 24 c 0
 528 15 502 10 476 10 c 1
 389 30 l 1
 388 -151 l 2
 388 -152 389 -152 392 -152 c 0
 419 -152 456 -135 502 -103 c 0
 561 -61 590 -13 588 44 c 0
 586 99 561 163 515 236 c 0
 507 249 503 257 503 260 c 0
 503 261 503 262 504 262 c 0
 516 262 538 237 571 187 c 0
 609 131 629 84 629 44 c 0
 629 -12 608 -67 566 -121 c 0
 537 -159 499 -194 451 -229 c 0
 409 -260 388 -274 388 -273 c 2
 388 -337 l 1
 436 -309 483 -271 529 -225 c 0
 553 -201 578 -173 605 -140 c 0
 615 -127 621 -110 621 -88 c 0
 621 -64 615 -38 604 -11 c 1
 610 -8 618 -23 628 -55 c 0
 638 -86 642 -109 642 -123 c 0
 642 -130 641 -135 640 -140 c 0
 622 -201 575 -270 499 -346 c 0
 467 -377 430 -409 388 -441 c 1
 388 -672 l 1
 436 -643 482 -603 525 -552 c 0
 533 -542 557 -512 597 -461 c 0
 609 -446 615 -422 615 -391 c 0
 615 -364 612 -336 604 -306 c 1
 629 -372 641 -419 641 -447 c 0
 641 -452 641 -458 640 -461 c 0
 629 -516 580 -588 492 -677 c 0
 458 -711 418 -746 374 -781 c 1
 356 -803 l 1
388 -603 m 1
 388 -507 l 1
 435 -480 482 -441 530 -393 c 0
 550 -373 575 -344 605 -307 c 0
 616 -294 622 -277 622 -255 c 0
 622 -231 616 -205 604 -178 c 1
 610 -175 618 -187 628 -215 c 0
 638 -243 642 -268 642 -290 c 0
 642 -297 641 -302 640 -307 c 0
 623 -368 576 -437 499 -511 c 0
 467 -542 430 -572 388 -603 c 1
EndSplineSet
EndChar

StartChar: I
Encoding: 73 73 34
Width: 372
VWidth: 0
Flags: HW
LayerCount: 2
Fore
SplineSet
472 6 m 4
 430 6 398 19 377 45 c 5
 378 -191 l 5
 507 -129 l 5
 558 -94 594 -45 616 18 c 4
 634 72 645 118 647 155 c 4
 649 191 639 236 618 290 c 5
 630 295 l 5
 655 243 666 192 663 141 c 4
 656 86 650 49 645 30 c 4
 644 25 641 -3 636 -54 c 4
 631 -94 627 -121 623 -137 c 4
 623 -138 624 -139 626 -140 c 4
 629 -141 632 -135 636 -119 c 4
 640 -105 643 -97 646 -97 c 4
 649 -97 651 -103 654 -114 c 4
 663 -147 663 -182 654 -220 c 4
 650 -237 645 -253 638 -267 c 5
 645 -279 649 -291 652 -304 c 4
 660 -342 662 -377 657 -409 c 4
 652 -445 633 -485 600 -531 c 4
 578 -561 551 -593 519 -625 c 4
 513 -631 489 -653 447 -693 c 4
 432 -707 420 -721 409 -736 c 4
 394 -756 383 -772 379 -784 c 4
 375 -796 373 -809 373 -823 c 5
 358 -823 l 5
 357 99 l 6
 357 113 360 126 365 140 c 4
 379 176 405 207 445 233 c 4
 485 259 526 271 569 270 c 4
 604 269 632 261 653 243 c 4
 674 225 684 202 684 175 c 4
 684 163 682 150 677 136 c 4
 664 100 637 70 597 44 c 4
 557 18 515 5 472 6 c 4
378 -600 m 5
 421 -597 456 -588 485 -573 c 4
 561 -532 611 -477 632 -406 c 4
 643 -369 644 -335 636 -304 c 4
 634 -296 632 -290 630 -283 c 5
 586 -356 524 -423 445 -486 c 4
 422 -504 407 -518 400 -528 c 4
 386 -546 379 -571 378 -600 c 5
642 -162 m 5
 642 -164 641 -152 639 -127 c 4
 637 -102 629 -77 616 -53 c 5
 602 -82 592 -103 582 -117 c 4
 561 -146 536 -176 509 -207 c 6
 441 -281 l 6
 415 -310 401 -325 400 -327 c 4
 390 -341 385 -358 383 -379 c 4
 382 -385 382 -390 382 -393 c 5
 417 -392 450 -384 481 -368 c 4
 560 -328 611 -271 634 -197 c 4
 639 -179 642 -167 642 -162 c 5
EndSplineSet
EndChar

StartChar: k
Encoding: 107 107 35
Width: 236
VWidth: 1000
Flags: HW
LayerCount: 2
Fore
SplineSet
72 62 m 1
 72 -87 l 1
 170 -55 l 1
 170 94 l 1
 72 62 l 1
43 156 m 1
 43 319 l 1
 72 319 l 1
 72 166 l 1
 170 198 l 1
 170 344 l 1
 199 344 l 1
 199 207 l 1
 238 220 l 1
 238 116 l 1
 199 103 l 1
 199 -45 l 1
 238 -33 l 1
 238 -136 l 1
 199 -149 l 1
 199 -312 l 1
 170 -312 l 1
 170 -158 l 1
 72 -190 l 1
 72 -338 l 1
 43 -338 l 1
 43 -200 l 1
 0 -214 l 1
 0 -110 l 1
 43 -96 l 1
 43 53 l 1
 0 39 l 1
 0 142 l 1
 43 156 l 1
EndSplineSet
EndChar

StartChar: K
Encoding: 75 75 36
Width: 406
VWidth: 1000
Flags: HW
LayerCount: 2
Fore
SplineSet
168 47 m 1
 168 -64 l 1
 235 -40 l 1
 235 71 l 1
 168 47 l 1
140 118 m 1
 140 240 l 1
 168 240 l 1
 168 125 l 1
 235 149 l 1
 235 259 l 1
 263 259 l 1
 263 156 l 1
 289 166 l 1
 289 88 l 1
 263 78 l 1
 263 -33 l 1
 289 -24 l 1
 289 -101 l 1
 263 -111 l 1
 263 -234 l 1
 235 -234 l 1
 235 -118 l 1
 168 -142 l 1
 168 -253 l 1
 140 -253 l 1
 140 -149 l 1
 108 -160 l 1
 108 -82 l 1
 140 -71 l 1
 140 40 l 1
 108 30 l 1
 108 108 l 1
 140 118 l 1
404 0 m 0
 404 -25.3333333333 401.333333333 -48 396 -68 c 128
 390.666666667 -88 383.833333333 -105.5 375.5 -120.5 c 128
 367.166666667 -135.5 358 -148.166666667 348 -158.5 c 128
 338 -168.833333333 328 -177.333333333 318 -184 c 1
 315 -177 l 1
 329 -162.333333333 340 -147.5 348 -132.5 c 128
 356 -117.5 361.833333333 -102.5 365.5 -87.5 c 128
 369.166666667 -72.5 371.5 -57.6666666667 372.5 -43 c 128
 373.5 -28.3333333333 374 -14 374 0 c 0
 374 14.6666666667 373.5 29.5 372.5 44.5 c 128
 371.5 59.5 369.166666667 74.5 365.5 89.5 c 128
 361.833333333 104.5 356 119.333333333 348 134 c 128
 340 148.666666667 329 163 315 177 c 1
 318 184 l 1
 326.666666667 178.666666667 336 170.5 346 159.5 c 128
 356 148.5 365.333333333 135 374 119 c 128
 382.666666667 103 389.833333333 84.8333333333 395.5 64.5 c 128
 401.166666667 44.1666666667 404 22.6666666667 404 0 c 0
86 -184 m 1
 76.6666666667 -177.333333333 66.8333333333 -168.833333333 56.5 -158.5 c 128
 46.1666666667 -148.166666667 36.8333333333 -135.5 28.5 -120.5 c 128
 20.1666666667 -105.5 13.3333333333 -88 8 -68 c 128
 2.66666666667 -48 0 -25.3333333333 0 0 c 0
 0 22.6666666667 2.66666666667 43.8333333333 8 63.5 c 128
 13.3333333333 83.1666666667 20.1666666667 101 28.5 117 c 128
 36.8333333333 133 46.1666666667 146.666666667 56.5 158 c 128
 66.8333333333 169.333333333 76.6666666667 178 86 184 c 1
 89 177 l 1
 75 163 64 148.666666667 56 134 c 128
 48 119.333333333 42.1666666667 104.5 38.5 89.5 c 128
 34.8333333333 74.5 32.5 59.5 31.5 44.5 c 128
 30.5 29.5 30 14.6666666667 30 0 c 0
 30 -14 30.5 -28.3333333333 31.5 -43 c 128
 32.5 -57.6666666667 34.8333333333 -72.5 38.5 -87.5 c 128
 42.1666666667 -102.5 48 -117.5 56 -132.5 c 128
 64 -147.5 75 -162.333333333 89 -177 c 1
 86 -184 l 1
EndSplineSet
EndChar

StartChar: M
Encoding: 77 77 37
Width: 436
VWidth: 1000
Flags: HW
LayerCount: 2
Fore
SplineSet
92 -213 m 1
 80.6666666667 -207 69.6666666667 -197.333333333 59 -184 c 128
 48.3333333333 -170.666666667 38.6666666667 -154.666666667 30 -136 c 128
 21.3333333333 -117.333333333 14.1666666667 -96.3333333333 8.5 -73 c 128
 2.83333333333 -49.6666666667 0 -25.3333333333 0 0 c 0
 0 22.6666666667 2.66666666667 45.3333333333 8 68 c 128
 13.3333333333 90.6666666667 20.5 111.666666667 29.5 131 c 128
 38.5 150.333333333 48.3333333333 167.166666667 59 181.5 c 128
 69.6666666667 195.833333333 80.6666666667 206 92 212 c 1
 95 204 l 1
 79.6666666667 187.333333333 67.6666666667 170.166666667 59 152.5 c 128
 50.3333333333 134.833333333 44 117.166666667 40 99.5 c 128
 36 81.8333333333 33.5 64.5 32.5 47.5 c 128
 31.5 30.5 31 14.6666666667 31 0 c 0
 31 -14 31.5 -29.5 32.5 -46.5 c 128
 33.5 -63.5 36 -81 40 -99 c 128
 44 -117 50.3333333333 -135 59 -153 c 128
 67.6666666667 -171 79.6666666667 -188.333333333 95 -205 c 1
 92 -213 l 1
164 354 m 1
 164 177 l 1
 164 113 l 1
 173.333333333 121.666666667 182 128.666666667 190 134 c 128
 198 139.333333333 205.666666667 143.5 213 146.5 c 128
 220.333333333 149.5 228.166666667 151.666666667 236.5 153 c 128
 244.833333333 154.333333333 254.333333333 155 265 155 c 0
 277.666666667 155 289 152.333333333 299 147 c 128
 309 141.666666667 317.666666667 134.666666667 325 126 c 128
 332.333333333 117.333333333 338 107.666666667 342 97 c 128
 346 86.3333333333 348 76 348 66 c 0
 348.666666667 55.3333333333 347.5 44.8333333333 344.5 34.5 c 128
 341.5 24.1666666667 338.333333333 14.6666666667 335 6 c 0
 330.333333333 -5.33333333333 323 -15.3333333333 313 -24 c 128
 303 -32.6666666667 294 -41 286 -49 c 0
 283.333333333 -51.6666666667 277.666666667 -56.3333333333 269 -63 c 128
 260.333333333 -69.6666666667 250.5 -77 239.5 -85 c 128
 228.5 -93 217 -101.166666667 205 -109.5 c 128
 193 -117.833333333 182 -125.5 172 -132.5 c 128
 162 -139.5 153.833333333 -145.5 147.5 -150.5 c 128
 138 -158 138 -158 138 -158 c 1
 138 433 l 1
 164 433 l 1
 164 354 l 1
245 91 m 0
 241.666666667 95 237 98.3333333333 231 101 c 128
 225 103.666666667 218.833333333 105 212.5 105 c 128
 206.166666667 105 199.666666667 103 193 99 c 128
 186.333333333 95 180.333333333 88 175 78 c 0
 168.333333333 65.3333333333 164.833333333 49.5 164.5 30.5 c 128
 164.166666667 11.5 164 -5.66666666667 164 -21 c 2
 164 -107 l 1
 164 -107 164 -107 170 -102.5 c 128
 174 -99.5 178.833333333 -95.5 184.5 -90.5 c 128
 190.166666667 -85.5 196.166666667 -80 202.5 -74 c 128
 208.833333333 -68 214.666666667 -62.6666666667 220 -58 c 0
 229.333333333 -49.3333333333 237.333333333 -40 244 -30 c 128
 250.666666667 -20 255.666666667 -7.33333333333 259 8 c 0
 263 23.3333333333 264 38.3333333333 262 53 c 128
 260 67.6666666667 254.333333333 80.3333333333 245 91 c 0
432 0 m 0
 432 -25.3333333333 429.333333333 -49.6666666667 424 -73 c 128
 418.666666667 -96.3333333333 411.5 -117.333333333 402.5 -136 c 128
 393.5 -154.666666667 383.5 -170.666666667 372.5 -184 c 128
 361.5 -197.333333333 350.666666667 -207 340 -213 c 1
 337 -205 l 1
 352.333333333 -188.333333333 364.333333333 -171 373 -153 c 128
 381.666666667 -135 388 -117 392 -99 c 128
 396 -81 398.5 -63.5 399.5 -46.5 c 128
 400.5 -29.5 401 -14 401 0 c 0
 401 14.6666666667 400.5 30.5 399.5 47.5 c 128
 398.5 64.5 396 81.8333333333 392 99.5 c 128
 388 117.166666667 381.666666667 134.833333333 373 152.5 c 128
 364.333333333 170.166666667 352.333333333 187.333333333 337 204 c 1
 340 212 l 1
 350.666666667 206 361.5 195.833333333 372.5 181.5 c 128
 383.5 167.166666667 393.5 150.333333333 402.5 131 c 128
 411.5 111.666666667 418.666666667 90.6666666667 424 68 c 128
 429.333333333 45.3333333333 432 22.6666666667 432 0 c 0
EndSplineSet
EndChar

StartChar: O
Encoding: 79 79 38
Width: 435
VWidth: 1000
Flags: HW
LayerCount: 2
Fore
SplineSet
165 62 m 1
 165 -95 l 1
 279 -65 l 1
 279 92 l 1
 165 62 l 1
304 196 m 1
 304 -375 l 1
 279 -375 l 1
 279 -161 l 1
 139 -197 l 1
 139 381 l 1
 165 381 l 1
 165 158 l 1
 304 196 l 1
92 -213 m 1
 81.3333333333 -207 70.6666666667 -197.333333333 60 -184 c 128
 49.3333333333 -170.666666667 39.6666666667 -154.666666667 31 -136 c 128
 22.3333333333 -117.333333333 15.1666666667 -96.3333333333 9.5 -73 c 128
 3.83333333333 -49.6666666667 1 -25.3333333333 1 0 c 0
 1 22.6666666667 3.66666666667 45.3333333333 9 68 c 128
 14.3333333333 90.6666666667 21.3333333333 111.666666667 30 131 c 128
 38.6666666667 150.333333333 48.3333333333 167.166666667 59 181.5 c 128
 69.6666666667 195.833333333 80.6666666667 206 92 212 c 1
 95 204 l 1
 79.6666666667 187.333333333 67.8333333333 170.166666667 59.5 152.5 c 128
 51.1666666667 134.833333333 44.8333333333 117.166666667 40.5 99.5 c 128
 36.1666666667 81.8333333333 33.5 64.5 32.5 47.5 c 128
 31.5 30.5 31 14.6666666667 31 0 c 0
 31 -14 31.5 -29.5 32.5 -46.5 c 128
 33.5 -63.5 36.1666666667 -81 40.5 -99 c 128
 44.8333333333 -117 51.1666666667 -135 59.5 -153 c 128
 67.8333333333 -171 79.6666666667 -188.333333333 95 -205 c 1
 92 -213 l 1
433 0 m 0
 433 -25.3333333333 430.333333333 -49.6666666667 425 -73 c 128
 419.666666667 -96.3333333333 412.5 -117.333333333 403.5 -136 c 128
 394.5 -154.666666667 384.5 -170.666666667 373.5 -184 c 128
 362.5 -197.333333333 351.666666667 -207 341 -213 c 1
 338 -205 l 1
 353.333333333 -188.333333333 365.333333333 -171 374 -153 c 128
 382.666666667 -135 389 -117 393 -99 c 128
 397 -81 399.5 -63.5 400.5 -46.5 c 128
 401.5 -29.5 402 -14 402 0 c 0
 402 14.6666666667 401.5 30.5 400.5 47.5 c 128
 399.5 64.5 397 81.8333333333 393 99.5 c 128
 389 117.166666667 382.666666667 134.833333333 374 152.5 c 128
 365.333333333 170.166666667 353.333333333 187.333333333 338 204 c 1
 341 212 l 1
 351.666666667 206 362.5 195.833333333 373.5 181.5 c 128
 384.5 167.166666667 394.5 150.333333333 403.5 131 c 128
 412.5 111.666666667 419.666666667 90.6666666667 425 68 c 128
 430.333333333 45.3333333333 433 22.6666666667 433 0 c 0
EndSplineSet
EndChar

StartChar: L
Encoding: 76 76 39
Width: 361
VWidth: 1000
Flags: HW
LayerCount: 2
Fore
SplineSet
190 27 m 2
 193.333333333 28.3333333333 197.333333333 30.5 202 33.5 c 128
 206.666666667 36.5 210 40 212 44 c 256
 214 48 215.333333333 52.8333333333 216 58.5 c 128
 216.666666667 64.1666666667 217.333333333 69.5 218 74.5 c 128
 218.666666667 79.5 218.833333333 83.8333333333 218.5 87.5 c 128
 218.166666667 91.1666666667 218 93.3333333333 218 94 c 2
 279 98 l 1
 276 33 l 2
 275.333333333 33.6666666667 269.833333333 34 259.5 34 c 128
 249.166666667 34 238.333333333 31.3333333333 227 26 c 0
 221 22.6666666667 217.333333333 19.6666666667 216 17 c 128
 214.666666667 14.3333333333 212.333333333 10.6666666667 209 6 c 1
 209 -4 l 2
 211 -7.33333333333 213.5 -10.8333333333 216.5 -14.5 c 128
 219.5 -18.1666666667 223 -21 227 -23 c 256
 231 -25 235.666666667 -26.3333333333 241 -27 c 128
 246.333333333 -27.6666666667 251.5 -28.3333333333 256.5 -29 c 128
 261.5 -29.6666666667 265.833333333 -30 269.5 -30 c 128
 275 -30 275 -30 276 -30 c 2
 279 -93 l 1
 216 -88 l 1
 215.333333333 -82 215 -77.1666666667 215 -73.5 c 128
 215 -68 215 -68 215 -63.5 c 128
 215 -60.5 214.5 -57.3333333333 213.5 -54 c 128
 212.5 -50.6666666667 210.666666667 -46 208 -40 c 0
 205.333333333 -34.6666666667 202.666666667 -31 200 -29 c 128
 197.333333333 -27 194 -24.3333333333 190 -21 c 1
 179 -21 l 2
 175.666666667 -22.3333333333 172.166666667 -24.8333333333 168.5 -28.5 c 128
 164.833333333 -32.1666666667 162 -36 160 -40 c 0
 156.666666667 -48.6666666667 154.666666667 -58.5 154 -69.5 c 128
 153.333333333 -80.5 153 -86.6666666667 153 -88 c 2
 90 -93 l 1
 95 -27 l 2
 95.6666666667 -27.6666666667 100.833333333 -28 110.5 -28 c 128
 120.166666667 -28 130.666666667 -25.3333333333 142 -20 c 0
 148 -16.6666666667 152 -14.3333333333 154 -13 c 128
 156 -11.6666666667 158.666666667 -8.66666666667 162 -4 c 1
 163 6 l 2
 161 9.33333333333 158.166666667 13.5 154.5 18.5 c 128
 150.833333333 23.5 146.666666667 27 142 29 c 0
 133.333333333 32.3333333333 123.666666667 34.3333333333 113 35 c 128
 102.333333333 35.6666666667 96.3333333333 35.6666666667 95 35 c 2
 90 98 l 1
 156 94 l 2
 155.333333333 93.3333333333 155 88 155 78 c 128
 155 68 157.666666667 57.3333333333 163 46 c 0
 166.333333333 40.6666666667 168.666666667 37 170 35 c 128
 171.333333333 33 174.333333333 30.3333333333 179 27 c 1
 190 27 l 2
362 0 m 0
 362 -25.3333333333 359.333333333 -48 354 -68 c 128
 348.666666667 -88 341.833333333 -105.5 333.5 -120.5 c 128
 325.166666667 -135.5 316 -148.166666667 306 -158.5 c 128
 296 -168.833333333 286 -177.333333333 276 -184 c 1
 273 -177 l 1
 287 -162.333333333 298 -147.5 306 -132.5 c 128
 314 -117.5 319.833333333 -102.5 323.5 -87.5 c 128
 327.166666667 -72.5 329.5 -57.6666666667 330.5 -43 c 128
 331.5 -28.3333333333 332 -14 332 0 c 0
 332 14.6666666667 331.5 29.5 330.5 44.5 c 128
 329.5 59.5 327.166666667 74.5 323.5 89.5 c 128
 319.833333333 104.5 314 119.333333333 306 134 c 128
 298 148.666666667 287 163 273 177 c 1
 276 184 l 1
 284.666666667 178.666666667 294 170.5 304 159.5 c 128
 314 148.5 323.333333333 135 332 119 c 128
 340.666666667 103 347.833333333 84.8333333333 353.5 64.5 c 128
 359.166666667 44.1666666667 362 22.6666666667 362 0 c 0
86 -184 m 1
 76.6666666667 -177.333333333 66.8333333333 -168.833333333 56.5 -158.5 c 128
 46.1666666667 -148.166666667 36.8333333333 -135.5 28.5 -120.5 c 128
 20.1666666667 -105.5 13.3333333333 -88 8 -68 c 128
 2.66666666667 -48 0 -25.3333333333 0 0 c 0
 0 22.6666666667 2.66666666667 43.8333333333 8 63.5 c 128
 13.3333333333 83.1666666667 20.1666666667 101 28.5 117 c 128
 36.8333333333 133 46.1666666667 146.666666667 56.5 158 c 128
 66.8333333333 169.333333333 76.6666666667 178 86 184 c 1
 89 177 l 1
 75 163 64 148.666666667 56 134 c 128
 48 119.333333333 42.1666666667 104.5 38.5 89.5 c 128
 34.8333333333 74.5 32.5 59.5 31.5 44.5 c 128
 30.5 29.5 30 14.6666666667 30 0 c 0
 30 -14 30.5 -28.3333333333 31.5 -43 c 128
 32.5 -57.6666666667 34.8333333333 -72.5 38.5 -87.5 c 128
 42.1666666667 -102.5 48 -117.5 56 -132.5 c 128
 64 -147.5 75 -162.333333333 89 -177 c 1
 86 -184 l 1
EndSplineSet
EndChar

StartChar: o
Encoding: 111 111 40
Width: 198
VWidth: 1000
Flags: HW
LayerCount: 2
Fore
SplineSet
24 62 m 1
 24 -95 l 1
 138 -65 l 1
 138 92 l 1
 24 62 l 1
164 196 m 1
 164 -375 l 1
 138 -375 l 1
 138 -161 l 1
 -1 -197 l 1
 -1 381 l 1
 24 381 l 1
 24 158 l 1
 164 196 l 1
EndSplineSet
EndChar

StartChar: N
Encoding: 78 78 41
Width: 638
VWidth: 1000
Flags: HW
LayerCount: 2
Fore
SplineSet
638 0 m 0
 638 -25.3333333333 635.333333333 -49.6666666667 630 -73 c 128
 624.666666667 -96.3333333333 617.666666667 -117.333333333 609 -136 c 128
 600.333333333 -154.666666667 590.5 -170.666666667 579.5 -184 c 128
 568.5 -197.333333333 557.666666667 -207 547 -213 c 1
 543 -205 l 1
 558.333333333 -188.333333333 570.333333333 -171 579 -153 c 128
 587.666666667 -135 594.166666667 -117 598.5 -99 c 128
 602.833333333 -81 605.5 -63.5 606.5 -46.5 c 128
 607.5 -29.5 608 -14 608 0 c 0
 608 14.6666666667 607.5 30.5 606.5 47.5 c 128
 605.5 64.5 602.833333333 81.8333333333 598.5 99.5 c 128
 594.166666667 117.166666667 587.666666667 134.833333333 579 152.5 c 128
 570.333333333 170.166666667 558.333333333 187.333333333 543 204 c 1
 547 212 l 1
 557.666666667 206 568.5 195.833333333 579.5 181.5 c 128
 590.5 167.166666667 600.333333333 150.333333333 609 131 c 128
 617.666666667 111.666666667 624.666666667 90.6666666667 630 68 c 128
 635.333333333 45.3333333333 638 22.6666666667 638 0 c 0
92 -213 m 1
 80.6666666667 -207 69.6666666667 -197.333333333 59 -184 c 128
 48.3333333333 -170.666666667 38.5 -154.666666667 29.5 -136 c 128
 20.5 -117.333333333 13.3333333333 -96.3333333333 8 -73 c 128
 2.66666666667 -49.6666666667 0 -25.3333333333 0 0 c 0
 0 22.6666666667 2.66666666667 45.3333333333 8 68 c 128
 13.3333333333 90.6666666667 20.5 111.666666667 29.5 131 c 128
 38.5 150.333333333 48.3333333333 167.166666667 59 181.5 c 128
 69.6666666667 195.833333333 80.6666666667 206 92 212 c 1
 95 204 l 1
 79.6666666667 187.333333333 67.6666666667 170.166666667 59 152.5 c 128
 50.3333333333 134.833333333 43.8333333333 117.166666667 39.5 99.5 c 128
 35.1666666667 81.8333333333 32.5 64.5 31.5 47.5 c 128
 30.5 30.5 30 14.6666666667 30 0 c 0
 30 -14 30.5 -29.5 31.5 -46.5 c 128
 32.5 -63.5 35.1666666667 -81 39.5 -99 c 128
 43.8333333333 -117 50.3333333333 -135 59 -153 c 128
 67.6666666667 -171 79.6666666667 -188.333333333 95 -205 c 1
 92 -213 l 1
151 354 m 1
 151 177 l 1
 151 113 l 1
 160.333333333 121.666666667 168.833333333 128.666666667 176.5 134 c 128
 184.166666667 139.333333333 191.833333333 143.5 199.5 146.5 c 128
 207.166666667 149.5 215.166666667 151.666666667 223.5 153 c 128
 231.833333333 154.333333333 241.333333333 155 252 155 c 0
 264.666666667 155 276 152.333333333 286 147 c 128
 296 141.666666667 304.666666667 134.666666667 312 126 c 128
 319.333333333 117.333333333 325 107.666666667 329 97 c 128
 333 86.3333333333 335 76 335 66 c 0
 335.666666667 55.3333333333 334.5 44.8333333333 331.5 34.5 c 128
 328.5 24.1666666667 325.333333333 14.6666666667 322 6 c 0
 317.333333333 -5.33333333333 310 -15.3333333333 300 -24 c 128
 290 -32.6666666667 281 -41 273 -49 c 0
 268 -53 268 -53 255.5 -63 c 128
 247.166666667 -69.6666666667 237.5 -77 226.5 -85 c 128
 215.5 -93 204 -101.166666667 192 -109.5 c 128
 180 -117.833333333 169 -125.5 159 -132.5 c 128
 149 -139.5 140.833333333 -145.5 134.5 -150.5 c 128
 125 -158 125 -158 125 -158 c 1
 125 433 l 1
 151 433 l 1
 151 354 l 1
232 91 m 0
 228.666666667 95 224 98.3333333333 218 101 c 128
 212 103.666666667 205.833333333 105 199.5 105 c 128
 193.166666667 105 186.666666667 103 180 99 c 128
 173.333333333 95 167.333333333 88 162 78 c 0
 155.333333333 65.3333333333 151.833333333 49.5 151.5 30.5 c 128
 151.166666667 11.5 151 -5.66666666667 151 -21 c 2
 151 -107 l 1
 151 -107 151 -107 157 -102.5 c 128
 161 -99.5 165.833333333 -95.5 171.5 -90.5 c 128
 177.166666667 -85.5 183.166666667 -80 189.5 -74 c 128
 195.833333333 -68 201.666666667 -62.6666666667 207 -58 c 0
 216.333333333 -49.3333333333 224.166666667 -40 230.5 -30 c 128
 236.833333333 -20 242 -7.33333333333 246 8 c 0
 249.333333333 23.3333333333 250.166666667 38.3333333333 248.5 53 c 128
 246.833333333 67.6666666667 241.333333333 80.3333333333 232 91 c 0
377 177 m 1
 377 113 l 1
 386.333333333 121.666666667 394.833333333 128.666666667 402.5 134 c 128
 410.166666667 139.333333333 417.833333333 143.5 425.5 146.5 c 128
 433.166666667 149.5 441.166666667 151.666666667 449.5 153 c 128
 457.833333333 154.333333333 467.333333333 155 478 155 c 0
 490.666666667 155 502 152.333333333 512 147 c 128
 522 141.666666667 530.5 134.666666667 537.5 126 c 128
 544.5 117.333333333 550 107.666666667 554 97 c 128
 558 86.3333333333 560.333333333 76 561 66 c 0
 561.666666667 55.3333333333 560.5 44.8333333333 557.5 34.5 c 128
 554.5 24.1666666667 551.333333333 14.6666666667 548 6 c 0
 543.333333333 -5.33333333333 536 -15.3333333333 526 -24 c 128
 516 -32.6666666667 507 -41 499 -49 c 0
 494.333333333 -53.6666666667 484 -61.8333333333 468 -73.5 c 128
 452 -85.1666666667 435.333333333 -97.1666666667 418 -109.5 c 128
 400.666666667 -121.833333333 385.166666667 -132.833333333 371.5 -142.5 c 128
 357.833333333 -152.166666667 351 -157.333333333 351 -158 c 2
 351 433 l 1
 377 433 l 1
 377 177 l 1
458 91 m 0
 454.666666667 95 450 98.3333333333 444 101 c 128
 438 103.666666667 431.833333333 105 425.5 105 c 128
 419.166666667 105 412.666666667 103 406 99 c 128
 399.333333333 95 393.333333333 88 388 78 c 0
 381.333333333 65.3333333333 377.833333333 49.5 377.5 30.5 c 128
 377.166666667 11.5 377 -5.66666666667 377 -21 c 2
 377 -107 l 1
 377 -107 377 -107 383 -102.5 c 128
 387 -99.5 391.833333333 -95.5 397.5 -90.5 c 128
 403.166666667 -85.5 409.166666667 -80 415.5 -74 c 128
 421.833333333 -68 427.666666667 -62.6666666667 433 -58 c 0
 441.666666667 -49.3333333333 449.333333333 -40 456 -30 c 128
 462.666666667 -20 468 -7.33333333333 472 8 c 0
 475.333333333 23.3333333333 476.166666667 38.3333333333 474.5 53 c 128
 472.833333333 67.6666666667 467.333333333 80.3333333333 458 91 c 0
EndSplineSet
EndChar

StartChar: n
Encoding: 110 110 42
Width: 438
VWidth: 1000
Flags: HW
LayerCount: 2
Fore
SplineSet
26 354 m 1
 26 177 l 1
 26 113 l 1
 35.3333333333 121.666666667 44 128.666666667 52 134 c 128
 60 139.333333333 67.6666666667 143.5 75 146.5 c 128
 82.3333333333 149.5 90.1666666667 151.666666667 98.5 153 c 128
 106.833333333 154.333333333 116.333333333 155 127 155 c 0
 139.666666667 155 151 152.333333333 161 147 c 128
 171 141.666666667 179.666666667 134.666666667 187 126 c 128
 194.333333333 117.333333333 200 107.666666667 204 97 c 128
 208 86.3333333333 210 76 210 66 c 0
 210.666666667 55.3333333333 209.666666667 44.8333333333 207 34.5 c 128
 204.333333333 24.1666666667 201 14.6666666667 197 6 c 0
 192.333333333 -5.33333333333 185 -15.3333333333 175 -24 c 128
 165 -32.6666666667 156 -41 148 -49 c 0
 145.333333333 -51.6666666667 139.666666667 -56.3333333333 131 -63 c 128
 122.333333333 -69.6666666667 112.5 -77 101.5 -85 c 128
 90.5 -93 79 -101.166666667 67 -109.5 c 128
 55 -117.833333333 44 -125.5 34 -132.5 c 128
 24 -139.5 15.8333333333 -145.5 9.5 -150.5 c 128
 0 -158 0 -158 0 -158 c 1
 0 433 l 1
 26 433 l 1
 26 354 l 1
107 91 m 0
 103.666666667 95 99.1666666667 98.3333333333 93.5 101 c 128
 87.8333333333 103.666666667 81.6666666667 105 75 105 c 128
 68.3333333333 105 61.6666666667 103 55 99 c 128
 48.3333333333 95 42.3333333333 88 37 78 c 0
 30.3333333333 65.3333333333 26.8333333333 49.5 26.5 30.5 c 128
 26.1666666667 11.5 26 -5.66666666667 26 -21 c 2
 26 -107 l 1
 26 -107 26 -107 32 -102.5 c 128
 36 -99.5 40.8333333333 -95.5 46.5 -90.5 c 128
 52.1666666667 -85.5 58.1666666667 -80 64.5 -74 c 128
 70.8333333333 -68 76.6666666667 -62.6666666667 82 -58 c 0
 91.3333333333 -49.3333333333 99.3333333333 -40 106 -30 c 128
 112.666666667 -20 117.666666667 -7.33333333333 121 8 c 0
 125 23.3333333333 126 38.3333333333 124 53 c 128
 122 67.6666666667 116.333333333 80.3333333333 107 91 c 0
252 177 m 1
 252 113 l 1
 261.333333333 121.666666667 269.833333333 128.666666667 277.5 134 c 128
 285.166666667 139.333333333 292.833333333 143.5 300.5 146.5 c 128
 308.166666667 149.5 316.166666667 151.666666667 324.5 153 c 128
 332.833333333 154.333333333 342.333333333 155 353 155 c 0
 365.666666667 155 377 152.333333333 387 147 c 128
 397 141.666666667 405.5 134.666666667 412.5 126 c 128
 419.5 117.333333333 425 107.666666667 429 97 c 128
 433 86.3333333333 435.333333333 76 436 66 c 0
 436.666666667 55.3333333333 435.5 44.8333333333 432.5 34.5 c 128
 429.5 24.1666666667 426.333333333 14.6666666667 423 6 c 0
 418.333333333 -5.33333333333 411 -15.3333333333 401 -24 c 128
 391 -32.6666666667 382 -41 374 -49 c 0
 369.333333333 -53.6666666667 359 -61.8333333333 343 -73.5 c 128
 327 -85.1666666667 310.333333333 -97.1666666667 293 -109.5 c 128
 275.666666667 -121.833333333 260.166666667 -132.833333333 246.5 -142.5 c 128
 232.833333333 -152.166666667 226 -157.333333333 226 -158 c 2
 226 433 l 1
 252 433 l 1
 252 177 l 1
333 91 m 0
 329.666666667 95 325 98.3333333333 319 101 c 128
 313 103.666666667 306.833333333 105 300.5 105 c 128
 294.166666667 105 287.666666667 103 281 99 c 128
 274.333333333 95 268.333333333 88 263 78 c 0
 256.333333333 65.3333333333 252.833333333 49.5 252.5 30.5 c 128
 252.166666667 11.5 252 -5.66666666667 252 -21 c 2
 252 -107 l 1
 252 -107 252 -107 258 -102.5 c 128
 262 -99.5 266.833333333 -95.5 272.5 -90.5 c 128
 278.166666667 -85.5 284.166666667 -80 290.5 -74 c 128
 296.833333333 -68 302.666666667 -62.6666666667 308 -58 c 0
 316.666666667 -49.3333333333 324.333333333 -40 331 -30 c 128
 337.666666667 -20 343 -7.33333333333 347 8 c 0
 350.333333333 23.3333333333 351.166666667 38.3333333333 349.5 53 c 128
 347.833333333 67.6666666667 342.333333333 80.3333333333 333 91 c 0
EndSplineSet
EndChar

StartChar: l
Encoding: 108 108 43
Width: 268
VWidth: 1000
Flags: HW
LayerCount: 2
Fore
SplineSet
0 -155 m 1
 0 -114 l 1
 114 0 l 1
 0 114 l 1
 0 155 l 1
 135 21 l 1
 269 155 l 1
 269 114 l 1
 155 0 l 1
 269 -114 l 1
 269 -155 l 1
 135 -21 l 1
 0 -155 l 1
EndSplineSet
EndChar

StartChar: s
Encoding: 115 115 44
Width: 427
VWidth: 1000
Flags: HW
LayerCount: 2
Fore
SplineSet
196 20 m 2
 196.666666667 16.6666666667 196.666666667 13.3333333333 196 10 c 128
 195.333333333 6.66666666667 194.666666667 3.66666666667 194 1 c 0
 188 -23.6666666667 174.166666667 -44.5 152.5 -61.5 c 128
 130.833333333 -78.5 105 -88.6666666667 75 -92 c 0
 71.6666666667 -92 67.3333333333 -91.8333333333 62 -91.5 c 128
 56.6666666667 -91.1666666667 51 -90.1666666667 45 -88.5 c 128
 39 -86.8333333333 33.1666666667 -84.5 27.5 -81.5 c 128
 21.8333333333 -78.5 17 -74.3333333333 13 -69 c 0
 10.3333333333 -66.3333333333 8.16666666667 -62 6.5 -56 c 128
 4.83333333333 -50 3.66666666667 -43.6666666667 3 -37 c 128
 2.33333333333 -30.3333333333 2 -24 2 -18 c 128
 2 -12 2.33333333333 -7.33333333333 3 -4 c 0
 5 2.66666666667 9 11.1666666667 15 21.5 c 128
 21 31.8333333333 28.6666666667 41.5 38 50.5 c 128
 47.3333333333 59.5 58.6666666667 67.1666666667 72 73.5 c 128
 85.3333333333 79.8333333333 100.666666667 83 118 83 c 0
 125 83 125 83 133.5 83 c 128
 139.166666667 83 144.666666667 82.8333333333 150 82.5 c 128
 155.333333333 82.1666666667 160.5 81.1666666667 165.5 79.5 c 128
 170.5 77.8333333333 174.333333333 75.3333333333 177 72 c 1
 177.666666667 86 178 101.833333333 178 119.5 c 128
 178 146 178 146 178 170 c 0
 178 188 177.666666667 206.666666667 177 226 c 1
 53 160 l 1
 53 184 l 1
 177 251 l 1
 177 579 l 1
 193 580 l 1
 193 574.666666667 193.166666667 569.333333333 193.5 564 c 128
 193.833333333 558.666666667 195.5 552.166666667 198.5 544.5 c 128
 201.5 536.833333333 206.5 527.666666667 213.5 517 c 128
 220.5 506.333333333 230.666666667 493.666666667 244 479 c 0
 262 458.333333333 280.166666667 436.333333333 298.5 413 c 128
 316.833333333 389.666666667 331.666666667 365 343 339 c 1
 431 387 l 1
 431 363 l 1
 352 320 l 1
 354.666666667 312.666666667 358.5 298.666666667 363.5 278 c 128
 368.5 257.333333333 371.333333333 231 372 199 c 0
 372.666666667 185.666666667 371.5 170.666666667 368.5 154 c 128
 365.5 137.333333333 360.666666667 117.333333333 354 94 c 0
 353.333333333 90.6666666667 352.166666667 87 350.5 83 c 128
 348.833333333 79 347.333333333 75.3333333333 346 72 c 0
 343.333333333 68 341 64 339 60 c 1
 327 66 l 1
 333 78 337.666666667 88.5 341 97.5 c 128
 344.333333333 106.5 347 115.666666667 349 125 c 128
 351 134.333333333 352.5 144.166666667 353.5 154.5 c 128
 354.5 164.833333333 355 177 355 191 c 0
 355 197.666666667 354.333333333 206.166666667 353 216.5 c 128
 351.666666667 226.833333333 349.833333333 237.5 347.5 248.5 c 128
 345.166666667 259.5 342.5 270.166666667 339.5 280.5 c 128
 336.5 290.833333333 333.666666667 300 331 308 c 1
 197 237 l 1
 197 19 l 1
 196 20 l 2
197 261 m 1
 321 328 l 1
 307.666666667 354 290 373.333333333 268 386 c 128
 246 398.666666667 222.333333333 404.333333333 197 403 c 1
 197 261 l 1
EndSplineSet
EndChar

StartChar: m
Encoding: 109 109 45
Width: 210
VWidth: 1000
Flags: HW
LayerCount: 2
Fore
SplineSet
26 354 m 1
 26 177 l 1
 26 113 l 1
 35.3333333333 121.666666667 44 128.666666667 52 134 c 128
 60 139.333333333 67.6666666667 143.5 75 146.5 c 128
 82.3333333333 149.5 90.1666666667 151.666666667 98.5 153 c 128
 106.833333333 154.333333333 116.333333333 155 127 155 c 0
 139.666666667 155 151 152.333333333 161 147 c 128
 171 141.666666667 179.666666667 134.666666667 187 126 c 128
 194.333333333 117.333333333 200 107.666666667 204 97 c 128
 208 86.3333333333 210 76 210 66 c 0
 210.666666667 55.3333333333 209.666666667 44.8333333333 207 34.5 c 128
 204.333333333 24.1666666667 201 14.6666666667 197 6 c 0
 192.333333333 -5.33333333333 185 -15.3333333333 175 -24 c 128
 165 -32.6666666667 156 -41 148 -49 c 0
 145.333333333 -51.6666666667 139.666666667 -56.3333333333 131 -63 c 128
 122.333333333 -69.6666666667 112.5 -77 101.5 -85 c 128
 90.5 -93 79 -101.166666667 67 -109.5 c 128
 55 -117.833333333 44 -125.5 34 -132.5 c 128
 24 -139.5 15.8333333333 -145.5 9.5 -150.5 c 128
 0 -158 0 -158 0 -158 c 1
 0 433 l 1
 26 433 l 1
 26 354 l 1
107 91 m 0
 103.666666667 95 99.1666666667 98.3333333333 93.5 101 c 128
 87.8333333333 103.666666667 81.6666666667 105 75 105 c 128
 68.3333333333 105 61.6666666667 103 55 99 c 128
 48.3333333333 95 42.3333333333 88 37 78 c 0
 30.3333333333 65.3333333333 26.8333333333 49.5 26.5 30.5 c 128
 26.1666666667 11.5 26 -5.66666666667 26 -21 c 2
 26 -107 l 1
 26 -107 26 -107 32 -102.5 c 128
 36 -99.5 40.8333333333 -95.5 46.5 -90.5 c 128
 52.1666666667 -85.5 58.1666666667 -80 64.5 -74 c 128
 70.8333333333 -68 76.6666666667 -62.6666666667 82 -58 c 0
 91.3333333333 -49.3333333333 99.3333333333 -40 106 -30 c 128
 112.666666667 -20 117.666666667 -7.33333333333 121 8 c 0
 125 23.3333333333 126 38.3333333333 124 53 c 128
 122 67.6666666667 116.333333333 80.3333333333 107 91 c 0
EndSplineSet
EndChar
